<?xml version="1.0" encoding="utf-8"?>
<!-- Generator: Adobe Illustrator 25.0.0, SVG Export Plug-In . SVG Version: 6.00 Build 0)  -->
<svg version="1.1" id="Capa_1" xmlns="http://www.w3.org/2000/svg" xmlns:xlink="http://www.w3.org/1999/xlink" x="0px" y="0px"
	 viewBox="0 0 841.9 306" enable-background="new 0 0 841.9 306" xml:space="preserve">
<g>
	<g>
		<path fill="#27348B" d="M68.3,24.8c-1.8,0-5.4,0.1-11,0.3c-1.5,0.1-2.8,0.1-4.1,0.1c0,0-0.1-0.1-0.1-0.1c-2.7-2.7-5.9-4-9.8-4
			c-3.7,0-7,1.3-9.7,4c-2.7,2.7-4,5.9-4,9.8c0,3.7,1.3,7,4,9.7c0.2,0.2,0.5,0.4,0.7,0.7c0.4,13.2,0.7,27.6,0.7,43.3
			c0,18.2-0.3,35.3-0.8,51.3c-0.1,0.1-0.1,0.1-0.2,0.2c-2.7,2.7-4,5.9-4,9.8c0,3.7,1.3,7,4,9.7c2.7,2.7,5.9,4,9.7,4
			c3.8,0,7-1.3,9.7-4c6.5,0.3,11.7,0.4,15.5,0.4c21.7,0,38.8-7.3,51.1-21.9c12.4-14.6,18.5-31.5,18.5-50.9
			c0-17.9-5.7-32.8-17.2-44.6C110.1,30.7,92.3,24.8,68.3,24.8z M107.8,130.2c-8.8,10.7-22.1,16-40.1,16c-3.5,0-7.1-0.3-10.8-0.8
			c-0.6-2-1.8-3.8-3.4-5.4c-0.6-0.6-1.2-1.1-1.8-1.5c-0.6-16.8-0.9-33.5-0.9-49.9c0-14.2-0.2-28.1-0.6-41.7c1-0.6,2-1.3,2.9-2.2
			c1.7-1.7,2.9-3.6,3.5-5.7c2-0.2,3.7-0.3,5.2-0.3c20.2,0,35.1,5.1,44.7,15.2c9.6,10.1,14.5,22.8,14.5,37.9
			C120.9,106.7,116.5,119.5,107.8,130.2z"/>
		<path fill="#27348B" d="M239.4,136.5c-3.8,0-7,1.3-9.7,4c-1,1.1-1.9,2.2-2.5,3.4c-13.2,0.4-26.8,0.6-40.8,0.6
			c-0.6-15.3-0.9-31.7-0.9-49.2c8.7,0,17.2,0.1,25.4,0.2c0.6,0.9,1.3,1.8,2.1,2.7c2.7,2.7,5.9,4,9.7,4c3.8,0,7-1.3,9.7-4
			c2.7-2.7,4-5.9,4-9.7c0-3.8-1.3-7.1-4-9.8c-2.7-2.7-5.9-4-9.7-4c-3.8,0-7,1.3-9.7,4c-1,1-1.7,2-2.3,3.1
			c-7.9,0.2-16.3,0.3-25.1,0.3c0-18-0.2-32.2-0.6-42.8c12.7,0,25,0.2,36.9,0.5c0.5,0.8,1.1,1.5,1.8,2.2c2.7,2.7,5.9,4,9.7,4
			c3.8,0,7-1.3,9.7-4c0.4-0.4,0.8-0.9,1.2-1.4c0.1,0,0.2,0,0.2,0l0-0.3c1.7-2.3,2.5-5,2.5-7.9c0-2.5-0.6-4.8-1.7-6.8l0-0.1h-0.1
			c-0.6-1-1.3-1.9-2.2-2.8c-2.7-2.7-5.9-4-9.7-4c-3.8,0-7,1.3-9.7,4c-0.9,0.9-1.6,1.8-2.2,2.8H168c1,18.1,1.4,39.2,1.4,63.1
			c0,25.5-0.5,48.8-1.4,69.9h60.4c0.4,0.5,0.8,1,1.3,1.5c2.7,2.7,5.9,4,9.7,4c3.8,0,7-1.3,9.7-4c2.7-2.7,4-5.9,4-9.7
			c0-3.8-1.3-7.1-4-9.8C246.4,137.8,243.2,136.5,239.4,136.5z"/>
		<path fill="#27348B" d="M341.7,96.4c-5.7-5-14.8-10.2-27.6-15.7c-11.2-4.8-18.4-8.4-21.7-10.8c-5-3.8-7.6-8.5-7.6-14.2
			c0-11.7,8.7-17.6,26.3-17.6c3.4,0,6.6,0.2,9.9,0.4c0.7,1.7,1.7,3.2,3.1,4.6c2.8,2.8,6.1,4.1,10,4.1c3.9,0,7.3-1.4,10.1-4.1
			c2.8-2.8,4.1-6.1,4.1-10c0-3.9-1.4-7.3-4.1-10.1c-2.8-2.8-6.1-4.1-10.1-4.1c-3.9,0-7.2,1.4-10,4.1c-0.2,0.2-0.4,0.4-0.6,0.6
			c-3.2-0.1-6.6-0.2-10.3-0.2c-14.3,0-25.4,3.5-33.2,10.6c-7,6.3-10.5,14.5-10.5,24.6c0,9.7,3.4,17.7,10.3,24.1
			c5,4.6,13.7,9.7,26,15.2c11.8,5.2,19.7,9.4,23.7,12.6c6,4.7,9,10.4,9,17c0,13.1-11.6,19.6-34.7,19.6c-3.3,0-6.7-0.2-10.2-0.6
			c-0.7-1.7-1.7-3.2-3.1-4.5c-2.8-2.8-6.1-4.1-10.1-4.1c-3.5,0-6.6,1.1-9.2,3.4c0,0-0.1,0-0.1,0l0,0.2c-0.2,0.2-0.4,0.4-0.6,0.6
			c-2.8,2.8-4.1,6.1-4.1,10.1c0,3.9,1.4,7.2,4.1,10c2.8,2.8,6.1,4.1,10,4.1c3.9,0,7.3-1.4,10.1-4.1c0.2-0.2,0.4-0.5,0.7-0.7
			c3.4,0.2,6.9,0.4,10.5,0.4c35.1,0,52.6-12.6,52.6-37.8C354.5,113.1,350.3,103.9,341.7,96.4z"/>
		<path fill="#27348B" d="M457.2,18.5c-3.9,0-7.2,1.4-10,4.1c-0.9,0.9-1.6,1.8-2.2,2.8h-54.4c-0.5-0.8-1.1-1.5-1.8-2.2
			c-2.8-2.8-6.1-4.1-10.1-4.1c-3.9,0-7.2,1.4-10,4.1c-2.8,2.8-4.1,6.1-4.1,10.1c0,3.9,1.4,7.2,4.1,10c2.8,2.8,6.1,4.1,10,4.1
			c3.9,0,7.3-1.4,10.1-4.1c1.3-1.3,2.2-2.7,2.9-4.1c6.9-0.2,12.8-0.3,17.7-0.3c0.4,13.3,0.6,29.9,0.6,49.7c0,16-0.2,32-0.6,48
			c-0.6,0.4-1.1,0.9-1.6,1.4c-2.8,2.8-4.1,6.1-4.1,10.1c0,3.9,1.4,7.2,4.1,10c2.8,2.8,6.1,4.1,10,4.1c3.7,0,6.9-1.2,9.6-3.7h0.1
			c0,0,0-0.1,0-0.1c0.1-0.1,0.2-0.2,0.4-0.3c2.8-2.8,4.1-6.1,4.1-10c0-3.9-1.4-7.3-4.1-10.1c-0.3-0.3-0.6-0.5-0.9-0.8
			c-0.3-16.7-0.5-32.9-0.5-48.6c0-20.1,0.1-36.7,0.2-49.7c6.1,0,12,0.1,17.9,0.2c0.7,1.3,1.5,2.5,2.7,3.6c2.8,2.8,6.1,4.1,10,4.1
			c3.9,0,7.3-1.4,10.1-4.1c2.8-2.8,4.1-6.1,4.1-10c0-3.9-1.4-7.3-4.1-10.1C464.5,19.9,461.1,18.5,457.2,18.5z"/>
		<path fill="#27348B" d="M509.1,138.9c-0.5-16.1-0.7-32.9-0.7-50.3c0-15.5,0.2-30,0.6-43.4c0.2-0.2,0.4-0.4,0.7-0.6
			c2.7-2.7,4-5.9,4-9.7c0-3.8-1.3-7.1-4-9.8c-2.7-2.7-5.9-4-9.8-4c-3.7,0-7,1.3-9.7,4c-2.7,2.7-4,5.9-4,9.8c0,3.7,1.3,7,4,9.7
			c0.3,0.3,0.7,0.7,1,1c0.4,13.1,0.6,27.4,0.6,43c0,17.3-0.3,34.1-0.8,50.2c-0.3,0.2-0.5,0.5-0.8,0.7c-2.7,2.7-4,5.9-4,9.8
			c0,3.7,1.3,7,4,9.7c2.7,2.7,5.9,4,9.7,4c3.8,0,7.1-1.3,9.8-4c2.7-2.7,4-5.9,4-9.7c0-3.8-1.3-7.1-4-9.8
			C509.5,139.3,509.3,139.1,509.1,138.9z"/>
		<path fill="#27348B" d="M649.7,134.8c-0.5-14.9-0.7-30.3-0.7-46.2c0-15.1,0.2-29,0.7-41.8c0.7-0.5,1.3-1,2-1.6
			c2.7-2.7,4-5.9,4-9.6c0-3.8-1.3-7-4-9.7c-2.7-2.7-5.9-4-9.6-4c-3.7,0-6.9,1.3-9.6,4c-2.7,2.7-4,5.9-4,9.7c0,3.7,1.3,6.9,4,9.6
			c0.5,0.5,1.1,1,1.7,1.4c0.4,12.8,0.6,27.2,0.6,43c0,11.6,0.6,25.7,1.7,42.3h-1c-3-9.3-15.3-29.2-36.8-59.9
			c-13.6-19.2-22.7-32.5-27.3-39.9c-0.5-2.7-1.7-5.1-3.8-7.2c-2.7-2.7-5.9-4-9.6-4c-3.7,0-6.9,1.3-9.6,4c-2.7,2.7-4,5.9-4,9.7
			c0,3.7,1.3,6.9,4,9.6c0.3,0.3,0.5,0.5,0.8,0.7c0.5,13.2,0.8,27.8,0.8,43.6c0,16.8-0.3,33-0.8,48.7c-0.6,0.4-1.2,0.9-1.7,1.5
			c-2.7,2.7-4,5.9-4,9.7c0,3.7,1.3,6.9,4,9.6c2.7,2.7,5.9,4,9.6,4s6.9-1.3,9.6-4c2.7-2.7,4-5.9,4-9.6c0-3.8-1.3-7-4-9.7
			c-0.6-0.6-1.3-1.2-2-1.7c-0.5-16.1-0.8-32-0.8-47.9c0-11.6-0.6-25.4-1.8-41.5c0.4-0.1,0.7-0.2,1.1-0.4
			c3.4,8.8,16.7,29.5,39.8,62.2c12.4,17.4,21.3,30.2,26.8,38.3c0.2,3.4,1.5,6.3,3.9,8.7c2.7,2.7,5.9,4,9.6,4c2.7,0,5.1-0.7,7.2-2
			h0.3c0-0.1,0-0.1,0-0.2c0.8-0.5,1.5-1.1,2.2-1.8c2.7-2.7,4-5.9,4-9.6c0-3.8-1.3-7-4-9.7C651.9,136.2,650.9,135.4,649.7,134.8z"/>
		<path fill="#27348B" d="M786.6,40.9c-1.4-1.4-2.9-2.7-4.4-4c-0.1-3.6-1.4-6.7-4-9.3c-2.7-2.7-5.9-4-9.6-4c-2.5,0-4.8,0.6-6.8,1.8
			c-5.7-1.8-11.6-2.7-17.9-2.7c-16.9,0-31.8,6.5-44.6,19.6c-12.9,13-19.3,30.7-19.3,53c0,20.6,6.1,36.9,18.3,49
			c12.2,12.1,26.4,18.1,42.6,18.1c16.9,0,31.8-6.6,44.6-19.8c12.9-13.2,19.3-30.8,19.3-52.8C805,69.3,798.9,53,786.6,40.9z
			 M773.8,132.8c-8.7,10.3-18.6,15.4-29.8,15.4c-12,0-22.6-4.8-31.9-14.5c-9.3-9.6-13.9-23.3-13.9-40.9c0-17,4.4-30.5,13.1-40.7
			C719.9,42.1,729.9,37,741,37c5,0,9.7,0.8,14.3,2.5c0.4,2.9,1.7,5.4,3.8,7.5c2.7,2.7,5.9,4,9.6,4c1.2,0,2.3-0.1,3.4-0.4
			c0.3,0.3,0.6,0.6,0.9,0.9c9.2,9.6,13.8,23.2,13.8,40.8C786.8,109,782.4,122.5,773.8,132.8z"/>
	</g>
	<g>
		<g>
			<g>
				<path fill="#00933A" d="M101.6,249.3c3,3.6,4.5,8.2,4.5,13.8c0,7.2-2.7,12.8-8,16.7c-5.4,3.9-13.3,5.9-23.7,5.9H35.5v-84.5H72
					c9.4,0,16.7,1.9,21.9,5.7c5.2,3.8,7.8,9.1,7.8,16.1c0,4.7-1.1,8.6-3.4,11.9s-5.5,5.7-9.5,7.3C94.3,243.3,98.6,245.7,101.6,249.3
					z M44.5,208.6v30.7h26.9c6.8,0,12.1-1.3,15.8-3.9c3.7-2.6,5.6-6.4,5.6-11.4c0-5-1.9-8.8-5.6-11.4c-3.7-2.6-9-3.9-15.8-3.9H44.5z
					 M91.4,274.5c3.9-2.6,5.8-6.6,5.8-12.1c0-10.5-7.6-15.8-22.9-15.8H44.5v31.7h29.8C81.8,278.3,87.6,277,91.4,274.5z"/>
			</g>
			<g>
				<path fill="#00933A" d="M126.5,201.2h8.9v84.5h-8.9V201.2z"/>
			</g>
			<g>
				<path fill="#00933A" d="M233.6,201.2v84.5h-7.4l-54.3-68.5v68.5H163v-84.5h7.4l54.4,68.5v-68.5H233.6z"/>
			</g>
			<g>
				<path fill="#00933A" d="M314.1,263.1H267l-10.1,22.6h-9.3l38.6-84.5h8.8l38.6,84.5h-9.4L314.1,263.1z M310.8,255.9l-20.3-45.4
					l-20.3,45.4H310.8z"/>
			</g>
			<g>
				<path fill="#00933A" d="M360.5,280.8c-6.7-3.7-12-8.8-15.8-15.4c-3.8-6.6-5.7-13.9-5.7-22c0-8.1,1.9-15.5,5.7-22
					c3.8-6.6,9.1-11.7,15.9-15.4c6.8-3.7,14.3-5.6,22.7-5.6c6.3,0,12.1,1,17.4,3.1c5.3,2.1,9.8,5.1,13.5,9.2l-5.7,5.7
					c-6.6-6.7-14.9-10-25-10c-6.7,0-12.8,1.5-18.2,4.6c-5.5,3.1-9.8,7.2-12.9,12.6c-3.1,5.3-4.6,11.3-4.6,17.9
					c0,6.6,1.5,12.6,4.6,17.9c3.1,5.3,7.4,9.5,12.9,12.6s11.5,4.6,18.2,4.6c10.1,0,18.5-3.4,25-10.1l5.7,5.7
					c-3.7,4-8.2,7.1-13.6,9.2c-5.4,2.1-11.2,3.2-17.4,3.2C374.7,286.4,367.2,284.5,360.5,280.8z"/>
			</g>
			<g>
				<path fill="#00933A" d="M433.2,201.2h8.9v84.5h-8.9V201.2z"/>
			</g>
			<g>
				<path fill="#00933A" d="M483.8,280.8c-6.8-3.7-12.1-8.9-15.9-15.4c-3.8-6.5-5.7-13.8-5.7-22c0-8.1,1.9-15.4,5.7-22
					c3.8-6.5,9.1-11.6,15.9-15.4c6.8-3.7,14.4-5.6,22.7-5.6c8.4,0,15.9,1.9,22.6,5.6c6.7,3.7,12,8.8,15.9,15.4
					c3.9,6.6,5.8,13.9,5.8,22c0,8.1-1.9,15.5-5.8,22c-3.9,6.6-9.2,11.7-15.9,15.4s-14.3,5.6-22.6,5.6
					C498.2,286.4,490.6,284.5,483.8,280.8z M524.7,273.9c5.4-3,9.6-7.2,12.7-12.6c3.1-5.4,4.6-11.3,4.6-17.9
					c0-6.6-1.5-12.6-4.6-17.9c-3.1-5.3-7.3-9.5-12.7-12.6c-5.4-3-11.4-4.5-18.1-4.5c-6.7,0-12.7,1.5-18.2,4.5
					c-5.4,3-9.7,7.2-12.8,12.6c-3.1,5.4-4.6,11.3-4.6,17.9c0,6.6,1.5,12.6,4.6,17.9c3.1,5.4,7.4,9.5,12.8,12.6s11.5,4.5,18.2,4.5
					C513.3,278.4,519.3,276.9,524.7,273.9z"/>
			</g>
			<g>
				<path fill="#00933A" d="M641.5,201.2v84.5h-7.4l-54.3-68.5v68.5h-8.9v-84.5h7.4l54.4,68.5v-68.5H641.5z"/>
			</g>
			<g>
				<path fill="#00933A" d="M722,263.1h-47.1l-10.1,22.6h-9.3l38.6-84.5h8.8l38.6,84.5h-9.4L722,263.1z M718.7,255.9l-20.3-45.4
					l-20.3,45.4H718.7z"/>
			</g>
			<g>
				<path fill="#00933A" d="M755.5,201.2h8.9V278h47.3v7.7h-56.2V201.2z"/>
			</g>
		</g>
	</g>
</g>
</svg>
