<svg viewBox="0 0 841.9 306" xmlns="http://www.w3.org/2000/svg"><path d="M68.3 24.8c-1.8 0-5.4.1-11 .3-1.5.1-2.8.1-4.1.1l-.1-.1c-2.7-2.7-5.9-4-9.8-4-3.7 0-7 1.3-9.7 4s-4 5.9-4 9.8c0 3.7 1.3 7 4 9.7.2.2.5.4.7.7.4 13.2.7 27.6.7 43.3 0 18.2-.3 35.3-.8 51.3l-.2.2c-2.7 2.7-4 5.9-4 9.8 0 3.7 1.3 7 4 9.7s5.9 4 9.7 4 7-1.3 9.7-4c6.5.3 11.7.4 15.5.4 21.7 0 38.8-7.3 51.1-21.9 12.4-14.6 18.5-31.5 18.5-50.9 0-17.9-5.7-32.8-17.2-44.6-11.2-11.9-29-17.8-53-17.8zm39.5 105.4c-8.8 10.7-22.1 16-40.1 16-3.5 0-7.1-.3-10.8-.8-.6-2-1.8-3.8-3.4-5.4-.6-.6-1.2-1.1-1.8-1.5-.6-16.8-.9-33.5-.9-49.9 0-14.2-.2-28.1-.6-41.7 1-.6 2-1.3 2.9-2.2 1.7-1.7 2.9-3.6 3.5-5.7 2-.2 3.7-.3 5.2-.3 20.2 0 35.1 5.1 44.7 15.2S121 76.7 121 91.8c-.1 14.9-4.5 27.7-13.2 38.4zm131.6 6.3c-3.8 0-7 1.3-9.7 4-1 1.1-1.9 2.2-2.5 3.4-13.2.4-26.8.6-40.8.6-.6-15.3-.9-31.7-.9-49.2 8.7 0 17.2.1 25.4.2.6.9 1.3 1.8 2.1 2.7 2.7 2.7 5.9 4 9.7 4s7-1.3 9.7-4 4-5.9 4-9.7-1.3-7.1-4-9.8-5.9-4-9.7-4-7 1.3-9.7 4c-1 1-1.7 2-2.3 3.1-7.9.2-16.3.3-25.1.3 0-18-.2-32.2-.6-42.8 12.7 0 25 .2 36.9.5.5.8 1.1 1.5 1.8 2.2 2.7 2.7 5.9 4 9.7 4s7-1.3 9.7-4c.4-.4.8-.9 1.2-1.4h.2v-.3c1.7-2.3 2.5-5 2.5-7.9 0-2.5-.6-4.8-1.7-6.8v-.1h-.1c-.6-1-1.3-1.9-2.2-2.8-2.7-2.7-5.9-4-9.7-4s-7 1.3-9.7 4c-.9.9-1.6 1.8-2.2 2.8H168c1 18.1 1.4 39.2 1.4 63.1 0 25.5-.5 48.8-1.4 69.9h60.4c.4.5.8 1 1.3 1.5 2.7 2.7 5.9 4 9.7 4s7-1.3 9.7-4 4-5.9 4-9.7-1.3-7.1-4-9.8-5.9-4-9.7-4zm102.3-40.1c-5.7-5-14.8-10.2-27.6-15.7-11.2-4.8-18.4-8.4-21.7-10.8-5-3.8-7.6-8.5-7.6-14.2 0-11.7 8.7-17.6 26.3-17.6 3.4 0 6.6.2 9.9.4.7 1.7 1.7 3.2 3.1 4.6 2.8 2.8 6.1 4.1 10 4.1s7.3-1.4 10.1-4.1c2.8-2.8 4.1-6.1 4.1-10s-1.4-7.3-4.1-10.1c-2.8-2.8-6.1-4.1-10.1-4.1-3.9 0-7.2 1.4-10 4.1l-.6.6c-3.2-.1-6.6-.2-10.3-.2-14.3 0-25.4 3.5-33.2 10.6-7 6.3-10.5 14.5-10.5 24.6 0 9.7 3.4 17.7 10.3 24.1 5 4.6 13.7 9.7 26 15.2 11.8 5.2 19.7 9.4 23.7 12.6 6 4.7 9 10.4 9 17 0 13.1-11.6 19.6-34.7 19.6-3.3 0-6.7-.2-10.2-.6-.7-1.7-1.7-3.2-3.1-4.5-2.8-2.8-6.1-4.1-10.1-4.1-3.5 0-6.6 1.1-9.2 3.4h-.1v.2l-.6.6c-2.8 2.8-4.1 6.1-4.1 10.1 0 3.9 1.4 7.2 4.1 10 2.8 2.8 6.1 4.1 10 4.1s7.3-1.4 10.1-4.1c.2-.2.4-.5.7-.7 3.4.2 6.9.4 10.5.4 35.1 0 52.6-12.6 52.6-37.8.1-11-4.1-20.2-12.7-27.7zm115.5-77.9c-3.9 0-7.2 1.4-10 4.1-.9.9-1.6 1.8-2.2 2.8h-54.4c-.5-.8-1.1-1.5-1.8-2.2-2.8-2.8-6.1-4.1-10.1-4.1-3.9 0-7.2 1.4-10 4.1-2.8 2.8-4.1 6.1-4.1 10.1 0 3.9 1.4 7.2 4.1 10 2.8 2.8 6.1 4.1 10 4.1s7.3-1.4 10.1-4.1c1.3-1.3 2.2-2.7 2.9-4.1 6.9-.2 12.8-.3 17.7-.3.4 13.3.6 29.9.6 49.7 0 16-.2 32-.6 48-.6.4-1.1.9-1.6 1.4-2.8 2.8-4.1 6.1-4.1 10.1 0 3.9 1.4 7.2 4.1 10 2.8 2.8 6.1 4.1 10 4.1 3.7 0 6.9-1.2 9.6-3.7h.1v-.1c.1-.1.2-.2.4-.3 2.8-2.8 4.1-6.1 4.1-10s-1.4-7.3-4.1-10.1c-.3-.3-.6-.5-.9-.8-.3-16.7-.5-32.9-.5-48.6 0-20.1.1-36.7.2-49.7 6.1 0 12 .1 17.9.2.7 1.3 1.5 2.5 2.7 3.6 2.8 2.8 6.1 4.1 10 4.1s7.3-1.4 10.1-4.1c2.8-2.8 4.1-6.1 4.1-10s-1.4-7.3-4.1-10.1c-2.9-2.7-6.3-4.1-10.2-4.1zm51.9 120.4c-.5-16.1-.7-32.9-.7-50.3 0-15.5.2-30 .6-43.4.2-.2.4-.4.7-.6 2.7-2.7 4-5.9 4-9.7s-1.3-7.1-4-9.8-5.9-4-9.8-4c-3.7 0-7 1.3-9.7 4s-4 5.9-4 9.8c0 3.7 1.3 7 4 9.7l1 1c.4 13.1.6 27.4.6 43 0 17.3-.3 34.1-.8 50.2-.3.2-.5.5-.8.7-2.7 2.7-4 5.9-4 9.8 0 3.7 1.3 7 4 9.7s5.9 4 9.7 4 7.1-1.3 9.8-4 4-5.9 4-9.7-1.3-7.1-4-9.8l-.6-.6zm140.6-4.1c-.5-14.9-.7-30.3-.7-46.2 0-15.1.2-29 .7-41.8.7-.5 1.3-1 2-1.6 2.7-2.7 4-5.9 4-9.6 0-3.8-1.3-7-4-9.7s-5.9-4-9.6-4-6.9 1.3-9.6 4-4 5.9-4 9.7c0 3.7 1.3 6.9 4 9.6.5.5 1.1 1 1.7 1.4.4 12.8.6 27.2.6 43 0 11.6.6 25.7 1.7 42.3h-1c-3-9.3-15.3-29.2-36.8-59.9-13.6-19.2-22.7-32.5-27.3-39.9-.5-2.7-1.7-5.1-3.8-7.2-2.7-2.7-5.9-4-9.6-4s-6.9 1.3-9.6 4-4 5.9-4 9.7c0 3.7 1.3 6.9 4 9.6.3.3.5.5.8.7.5 13.2.8 27.8.8 43.6 0 16.8-.3 33-.8 48.7-.6.4-1.2.9-1.7 1.5-2.7 2.7-4 5.9-4 9.7 0 3.7 1.3 6.9 4 9.6s5.9 4 9.6 4 6.9-1.3 9.6-4 4-5.9 4-9.6c0-3.8-1.3-7-4-9.7-.6-.6-1.3-1.2-2-1.7-.5-16.1-.8-32-.8-47.9 0-11.6-.6-25.4-1.8-41.5.4-.1.7-.2 1.1-.4 3.4 8.8 16.7 29.5 39.8 62.2 12.4 17.4 21.3 30.2 26.8 38.3.2 3.4 1.5 6.3 3.9 8.7 2.7 2.7 5.9 4 9.6 4 2.7 0 5.1-.7 7.2-2h.3v-.2c.8-.5 1.5-1.1 2.2-1.8 2.7-2.7 4-5.9 4-9.6 0-3.8-1.3-7-4-9.7-1.1-.9-2.1-1.7-3.3-2.3zm136.9-93.9c-1.4-1.4-2.9-2.7-4.4-4-.1-3.6-1.4-6.7-4-9.3-2.7-2.7-5.9-4-9.6-4-2.5 0-4.8.6-6.8 1.8-5.7-1.8-11.6-2.7-17.9-2.7-16.9 0-31.8 6.5-44.6 19.6-12.9 13-19.3 30.7-19.3 53 0 20.6 6.1 36.9 18.3 49s26.4 18.1 42.6 18.1c16.9 0 31.8-6.6 44.6-19.8 12.9-13.2 19.3-30.8 19.3-52.8.2-20.5-5.9-36.8-18.2-48.9zm-12.8 91.9c-8.7 10.3-18.6 15.4-29.8 15.4-12 0-22.6-4.8-31.9-14.5-9.3-9.6-13.9-23.3-13.9-40.9 0-17 4.4-30.5 13.1-40.7 8.6-10 18.6-15.1 29.7-15.1 5 0 9.7.8 14.3 2.5.4 2.9 1.7 5.4 3.8 7.5 2.7 2.7 5.9 4 9.6 4 1.2 0 2.3-.1 3.4-.4l.9.9c9.2 9.6 13.8 23.2 13.8 40.8 0 16.7-4.4 30.2-13 40.5zM101.6 249.3c3 3.6 4.5 8.2 4.5 13.8 0 7.2-2.7 12.8-8 16.7-5.4 3.9-13.3 5.9-23.7 5.9H35.5v-84.5H72c9.4 0 16.7 1.9 21.9 5.7s7.8 9.1 7.8 16.1c0 4.7-1.1 8.6-3.4 11.9s-5.5 5.7-9.5 7.3c5.5 1.1 9.8 3.5 12.8 7.1zm-57.1-40.7v30.7h26.9c6.8 0 12.1-1.3 15.8-3.9s5.6-6.4 5.6-11.4-1.9-8.8-5.6-11.4-9-3.9-15.8-3.9H44.5zm46.9 65.9c3.9-2.6 5.8-6.6 5.8-12.1 0-10.5-7.6-15.8-22.9-15.8H44.5v31.7h29.8c7.5 0 13.3-1.3 17.1-3.8zm35.1-73.3h8.9v84.5h-8.9v-84.5zm107.1 0v84.5h-7.4l-54.3-68.5v68.5H163v-84.5h7.4l54.4 68.5v-68.5h8.8zm80.5 61.9H267l-10.1 22.6h-9.3l38.6-84.5h8.8l38.6 84.5h-9.4l-10.1-22.6zm-3.3-7.2l-20.3-45.4-20.3 45.4h40.6zm49.7 24.9c-6.7-3.7-12-8.8-15.8-15.4s-5.7-13.9-5.7-22 1.9-15.5 5.7-22c3.8-6.6 9.1-11.7 15.9-15.4s14.3-5.6 22.7-5.6c6.3 0 12.1 1 17.4 3.1s9.8 5.1 13.5 9.2l-5.7 5.7c-6.6-6.7-14.9-10-25-10-6.7 0-12.8 1.5-18.2 4.6-5.5 3.1-9.8 7.2-12.9 12.6-3.1 5.3-4.6 11.3-4.6 17.9s1.5 12.6 4.6 17.9 7.4 9.5 12.9 12.6 11.5 4.6 18.2 4.6c10.1 0 18.5-3.4 25-10.1l5.7 5.7c-3.7 4-8.2 7.1-13.6 9.2s-11.2 3.2-17.4 3.2c-8.5-.2-16-2.1-22.7-5.8zm72.7-79.6h8.9v84.5h-8.9v-84.5zm50.6 79.6c-6.8-3.7-12.1-8.9-15.9-15.4s-5.7-13.8-5.7-22c0-8.1 1.9-15.4 5.7-22 3.8-6.5 9.1-11.6 15.9-15.4 6.8-3.7 14.4-5.6 22.7-5.6 8.4 0 15.9 1.9 22.6 5.6s12 8.8 15.9 15.4 5.8 13.9 5.8 22-1.9 15.5-5.8 22c-3.9 6.6-9.2 11.7-15.9 15.4s-14.3 5.6-22.6 5.6-15.9-1.9-22.7-5.6zm40.9-6.9c5.4-3 9.6-7.2 12.7-12.6s4.6-11.3 4.6-17.9-1.5-12.6-4.6-17.9-7.3-9.5-12.7-12.6c-5.4-3-11.4-4.5-18.1-4.5s-12.7 1.5-18.2 4.5c-5.4 3-9.7 7.2-12.8 12.6s-4.6 11.3-4.6 17.9 1.5 12.6 4.6 17.9c3.1 5.4 7.4 9.5 12.8 12.6s11.5 4.5 18.2 4.5 12.7-1.5 18.1-4.5zm116.8-72.7v84.5h-7.4l-54.3-68.5v68.5h-8.9v-84.5h7.4l54.4 68.5v-68.5h8.8zm80.5 61.9h-47.1l-10.1 22.6h-9.3l38.6-84.5h8.8l38.6 84.5h-9.4L722 263.1zm-3.3-7.2l-20.3-45.4-20.3 45.4h40.6zm36.8-54.7h8.9V278h47.3v7.7h-56.2v-84.5z"/></svg>