<?xml version="1.0" encoding="utf-8"?>
<!-- Generator: Adobe Illustrator 25.0.0, SVG Export Plug-In . SVG Version: 6.00 Build 0)  -->
<svg fill="#fff" version="1.1" id="Capa_1" xmlns="http://www.w3.org/2000/svg" xmlns:xlink="http://www.w3.org/1999/xlink" x="0px" y="0px"
	 viewBox="0 0 595.3 595.3" enable-background="new 0 0 595.3 595.3" xml:space="preserve">
<g>
	<path d="M303.1,167.1l0-96.3l-14.9,11.3c-85.4,65-98.5,139-39.1,220.1c4.1,5.6,6,12.2,5.4,18.6l-14.2,135.9c0,0,0,0,0,0l-3,28.4
		c0,18.1,14.8,32.9,32.9,32.9c18.1,0,32.9-14.7,32.9-32.9l0-257c-3,0.9-6,1.5-9.3,1.5c-3.3,0-6.3-0.6-9.3-1.5l0,257
		c0,7.9-6.4,14.3-14.3,14.3c-7.9,0-14.3-6.4-14.4-13.4l3.2-30.7l13.9-132.7c1.2-10.9-2-22.1-8.9-31.5
		c-50.1-68.3-43.7-126.6,20.4-182.2l0,58c-8,3.6-13.6,11.6-13.6,20.9c0,12.7,10.3,22.9,22.9,22.9c12.7,0,22.9-10.3,22.9-22.9
		C316.7,178.7,311.1,170.7,303.1,167.1z"/>
	<path d="M396.1,297.2c-3.6,3.6-3.6,9.5,0,13.1l65,65c1.8,1.8,4.2,2.7,6.6,2.7c2.4,0,4.8-0.9,6.6-2.7c3.6-3.6,3.6-9.5,0-13.1l-65-65
		C405.6,293.5,399.7,293.5,396.1,297.2z"/>
	<path d="M525.3,354.3l-16.6-16.6c0.8-2.3,1.3-4.8,1.3-7.5c0-12.7-10.3-22.9-22.9-22.9c-12.7,0-22.9,10.3-22.9,22.9
		c0,12.7,10.3,22.9,22.9,22.9c3.4,0,6.6-0.8,9.5-2.1l15.6,15.5L379.8,498.8l-0.1-17.7c0,0,0,0,0,0l-0.8-246.8l72.2,72.6
		c1.2-2.2,2.6-4.3,4.4-6.2c2.6-2.7,5.7-4.8,8.9-6.3l-72.4-73.3c-5.1-5.2-12.8-6.7-19.5-3.9s-11.1,9.3-11.1,16.5v240.7v6.4v19.3
		c0,7.3,4.3,13.8,11.1,16.5c2.2,0.9,4.6,1.4,6.9,1.4c4.6,0,9.2-1.8,12.6-5.2l133.2-133.2c3.4-3.4,5.3-7.9,5.3-12.7
		C530.5,362.2,528.6,357.7,525.3,354.3z"/>
	<path d="M115.9,228.7c5.5,0,9.9-4.4,9.9-9.9v-116c0-5.5-4.4-9.9-9.9-9.9c-5.5,0-9.9,4.4-9.9,9.9v116
		C106,224.3,110.4,228.7,115.9,228.7z"/>
	<path d="M157.7,81.4c-5.1,0-9.3,4.2-9.3,9.3l-0.1,114.7c-0.3,9.6-3.8,18.8-10.1,26.1l-10.4,12c-5.3,6.2-9.3,13.3-11.8,21
		c-2.5-7.7-6.5-14.9-11.8-21l-10.4-12c-6.6-7.7-10.3-17.5-10.3-27.6V90.7c0-5.1-4.2-9.3-9.3-9.3c-5.1,0-9.3,4.2-9.3,9.3v113.2
		c0,14.6,5.3,28.7,14.8,39.7l10.4,12c7.4,8.6,11.1,19.9,10.1,31.2l-12,131.6c-8.7,3.3-14.9,11.6-14.9,21.4
		c0,12.7,10.3,22.9,22.9,22.9c12.7,0,22.9-10.3,22.9-22.9c0-8.8-5.1-16.4-12.4-20.3l9.2-98.3l13.9,164.2c0,7.7-6.3,13.9-13.9,13.9
		c-7.7,0-13.9-6.3-14-13.2l0.3-4.9c-1.8,0.3-3.7,0.6-5.6,0.6c-4.6,0-8.9-1-12.8-2.7l-0.4,6.2c0,17.9,14.6,32.5,32.5,32.5
		s32.5-14.6,32.5-33.3l-16.7-197.8c-1-11.3,2.7-22.6,10.1-31.2l10.4-12c9.2-10.6,14.3-24.1,14.7-38c-0.1,0-0.2,0-0.2,0
		c0-0.1,0.3-0.2,0.3-0.4L167,90.7C167,85.6,162.8,81.4,157.7,81.4z"/>
</g>
<g>
	<path fill="#fff" d="M-372.6,26.6h-58.2c-4.8-43.9-43.6-78.3-90.6-78.3H-651c-47,0-85.7,34.4-90.6,78.3h-58
		c-32.7,0-59.4,25.7-59.4,57.2v158c0,5.1,4.2,9.3,9.3,9.3c5.1,0,9.3-4.2,9.3-9.3v-158c0-21.3,18.3-38.6,40.8-38.6h57.5v177.3
		c-7.2,3.5-12.2,10.8-12.2,19.3c0,11.9,9.6,21.5,21.5,21.5c11.9,0,21.5-9.6,21.5-21.5c0-8.5-5-15.8-12.2-19.3V35.9
		c0-38,32.5-69,72.5-69h129.6c40,0,72.5,31,72.5,69v188.1c0,0,0,0,0,0c-10.7,5.1-15.2,17.9-10.1,28.6c5.1,10.7,17.9,15.2,28.6,10.1
		c10.7-5.1,15.2-17.9,10.1-28.6c-2.2-4.6-5.8-7.9-10-10v-179h57.7c22.5,0,40.8,17.3,40.8,38.6v158c0,5.1,4.2,9.3,9.3,9.3
		c5.1,0,9.3-4.2,9.3-9.3v-158C-313.2,52.3-339.9,26.6-372.6,26.6z"/>
	<path fill="#fff" d="M-640.9,17.2h-21.3c-2.8,0-5,2.2-5,5v25.9c0,2.8,2.2,5,5,5h21.3c2.8,0,5-2.2,5-5V22.2
		C-635.9,19.5-638.1,17.2-640.9,17.2z"/>
	<path fill="#fff" d="M-575.5,17.2h-21.3c-2.8,0-5,2.2-5,5v25.9c0,2.8,2.2,5,5,5h21.3c2.8,0,5-2.2,5-5V22.2
		C-570.5,19.5-572.8,17.2-575.5,17.2z"/>
	<path fill="#fff" d="M-510.2,17.2h-21.3c-2.8,0-5,2.2-5,5v25.9c0,2.8,2.2,5,5,5h21.3c2.8,0,5-2.2,5-5V22.2
		C-505.2,19.5-507.4,17.2-510.2,17.2z"/>
	<path fill="#fff" d="M-640.9,81.8h-21.3c-2.8,0-5,2.2-5,5v25.9c0,2.8,2.2,5,5,5h21.3c2.8,0,5-2.2,5-5V86.8
		C-635.9,84-638.1,81.8-640.9,81.8z"/>
	<path fill="#fff" d="M-575.5,81.8h-21.3c-2.8,0-5,2.2-5,5v25.9c0,2.8,2.2,5,5,5h21.3c2.8,0,5-2.2,5-5V86.8
		C-570.5,84-572.8,81.8-575.5,81.8z"/>
	<path fill="#fff" d="M-510.2,81.8h-21.3c-2.8,0-5,2.2-5,5v25.9c0,2.8,2.2,5,5,5h21.3c2.8,0,5-2.2,5-5V86.8
		C-505.2,84-507.4,81.8-510.2,81.8z"/>
	<path fill="#fff" d="M-640.9,146.4h-21.3c-2.8,0-5,2.2-5,5v25.9c0,2.8,2.2,5,5,5h21.3c2.8,0,5-2.2,5-5v-25.9
		C-635.9,148.6-638.1,146.4-640.9,146.4z"/>
	<path fill="#fff" d="M-769.3,77.5h-21.3c-2.8,0-5,2.2-5,5v25.9c0,2.8,2.2,5,5,5h21.3c2.8,0,5-2.2,5-5V82.5
		C-764.3,79.7-766.5,77.5-769.3,77.5z"/>
	<path fill="#fff" d="M-769.3,134.3h-21.3c-2.8,0-5,2.2-5,5v25.9c0,2.8,2.2,5,5,5h21.3c2.8,0,5-2.2,5-5v-25.9
		C-764.3,136.5-766.5,134.3-769.3,134.3z"/>
	<path fill="#fff" d="M-374.6,134.3h-21.3c-2.8,0-5,2.2-5,5v25.9c0,2.8,2.2,5,5,5h21.3c2.8,0,5-2.2,5-5v-25.9
		C-369.6,136.5-371.9,134.3-374.6,134.3z"/>
	<path fill="#fff" d="M-374.6,77.5h-21.3c-2.8,0-5,2.2-5,5v25.9c0,2.8,2.2,5,5,5h21.3c2.8,0,5-2.2,5-5V82.5
		C-369.6,79.7-371.9,77.5-374.6,77.5z"/>
	<path fill="#fff" d="M-575.5,146.4h-21.3c-2.8,0-5,2.2-5,5v25.9c0,2.8,2.2,5,5,5h21.3c2.8,0,5-2.2,5-5v-25.9
		C-570.5,148.6-572.8,146.4-575.5,146.4z"/>
	<path fill="#fff" d="M-510.2,146.4h-21.3c-2.8,0-5,2.2-5,5v25.9c0,2.8,2.2,5,5,5h21.3c2.8,0,5-2.2,5-5v-25.9
		C-505.2,148.6-507.4,146.4-510.2,146.4z"/>
	<path fill="#fff" d="M-395-59.6c11.9,0,21.5-9.6,21.5-21.5c0-11.9-9.6-21.5-21.5-21.5c-11.9,0-21.5,9.6-21.5,21.5
		C-416.5-69.2-406.8-59.6-395-59.6z"/>
	<circle fill="#fff" cx="-492.9" cy="-124.7" r="21.5"/>
	<path fill="#fff" d="M-590.8-124.7c11.9,0,21.5-9.6,21.5-21.5c0-11.9-9.6-21.5-21.5-21.5c-11.9,0-21.5,9.6-21.5,21.5
		C-612.2-134.3-602.6-124.7-590.8-124.7z"/>
	<circle fill="#fff" cx="-688.7" cy="-124.7" r="21.5"/>
	<path fill="#fff" d="M-786.5-58.3c11.9,0,21.5-9.6,21.5-21.5c0-11.9-9.6-21.5-21.5-21.5c-11.9,0-21.5,9.6-21.5,21.5
		C-808-67.9-798.4-58.3-786.5-58.3z"/>
</g>
</svg>
