<?xml version="1.0" encoding="iso-8859-1"?>
<!-- Uploaded to: SVG Repo, www.svgrepo.com, Generator: SVG Repo Mixer Tools -->
<svg fill="#fff" height="800px" width="800px" version="1.1" id="Layer_1" xmlns="http://www.w3.org/2000/svg" xmlns:xlink="http://www.w3.org/1999/xlink" 
	 viewBox="0 0 512 512" xml:space="preserve">
<g>
	<g>
		<path d="M494.933,251.733h-30.481L288.017,66.901c1.289-3.593,2.116-7.407,2.116-11.435c0-18.825-15.309-34.133-34.133-34.133
			c-18.825,0-34.133,15.309-34.133,34.133c0,4.028,0.828,7.842,2.116,11.435L47.548,251.733H17.067C7.654,251.733,0,259.388,0,268.8
			v204.8c0,9.412,7.654,17.067,17.067,17.067h477.867c9.412,0,17.067-7.654,17.067-17.067V268.8
			C512,259.388,504.346,251.733,494.933,251.733z M256,38.4c9.412,0,17.067,7.654,17.067,17.067c0,9.412-7.654,17.067-17.067,17.067
			c-9.412,0-17.067-7.654-17.067-17.067C238.933,46.054,246.588,38.4,256,38.4z M233.882,81.246
			C239.855,86.383,247.518,89.6,256,89.6s16.145-3.217,22.118-8.354l162.739,170.487H71.142L233.882,81.246z M17.067,473.6V268.8
			h477.867l0.009,204.8H17.067z"/>
	</g>
</g>
<g>
	<g>
		<path d="M347.366,322.5l-25.6-25.6c-3.337-3.337-8.73-3.337-12.066,0l-79.3,79.3l-19.567-19.567c-3.337-3.337-8.73-3.337-12.066,0
			l-25.6,25.6c-3.337,3.337-3.337,8.73,0,12.066l51.2,51.2c1.664,1.664,3.849,2.5,6.033,2.5c2.185,0,4.369-0.836,6.033-2.5
			l110.933-110.933C350.703,331.23,350.703,325.837,347.366,322.5z M230.4,427.401l-39.134-39.134l13.534-13.534l19.567,19.567
			c3.337,3.337,8.73,3.337,12.066,0l79.3-79.3l13.534,13.534L230.4,427.401z"/>
	</g>
</g>
</svg>