<?xml version="1.0" encoding="utf-8"?>
<!-- Generator: Adobe Illustrator 25.0.0, SVG Export Plug-In . SVG Version: 6.00 Build 0)  -->
<svg fill="#fff" version="1.1" id="Capa_1" xmlns="http://www.w3.org/2000/svg" xmlns:xlink="http://www.w3.org/1999/xlink" x="0px" y="0px"
	 viewBox="0 0 595.3 595.3" enable-background="new 0 0 595.3 595.3" xml:space="preserve">
<g>
	<path d="M300.2,347.7c14,14,32.6,21.7,52.4,21.7c19.8,0,38.4-7.7,52.4-21.7l30.7-30.7c2.3,0.8,4.7,1.3,7.2,1.3
		c12.1,0,21.9-9.8,21.9-21.9c0-12.1-9.8-21.9-21.9-21.9c-12.1,0-21.9,9.8-21.9,21.9c0,2.5,0.5,4.9,1.3,7.2l-30.7,30.7
		c-21.5,21.5-56.5,21.5-78,0c-22.8-22.9-57.5-28.3-86.2-13.6l-53.9,27.6c-3.3-2-7.1-3.2-11.3-3.2c-12.1,0-21.9,9.8-21.9,21.9
		c0,12.1,9.8,21.9,21.9,21.9c12.1,0,21.9-9.8,21.9-21.9c0-0.9-0.2-1.8-0.3-2.7l52.1-26.7C257.4,326.7,283.2,330.7,300.2,347.7z"/>
	<path d="M497.2,236.7c-5.2,0-9.5,4.2-9.5,9.5v192.6L374.6,484v-99.7c-6.2,1.8-12.5,2.9-19,3.2v97.9l-116.5-46.6v-83.8
		c-0.3,0.1-0.6,0.2-0.9,0.4l-18,9.2v74.2l-114.8,45.9V237.5l114.8-45.9v113.5l4.9-2.5c4.5-2.3,9.3-4,14-5.4V191.6l116.5,46.6v96.3
		c6.6-0.4,13-2,19-4.7v-92.9l7.2-2.9c4.8-1.9,7.2-7.4,5.3-12.3c-2-4.9-7.5-7.2-12.3-5.3l-11.3,4.5l-130.3-52.1c-0.1,0-0.1,0-0.2,0
		c-1-0.4-2.1-0.6-3.3-0.6c-0.1,0-0.1,0-0.2,0c-1.2,0-2.3,0.2-3.3,0.6c0,0-0.1,0-0.1,0l-0.2,0.1c0,0,0,0,0,0L92.4,222.3
		c-3.6,1.4-6,4.9-6,8.8v267.6c0,3.1,1.6,6.1,4.2,7.8c2.6,1.8,5.9,2.1,8.8,1l130.3-52.1l130.3,52.1c1.1,0.5,2.3,0.7,3.5,0.7
		c0.6,0,1.3-0.1,1.9-0.2c2.2-0.1,4.1-0.8,5.7-2.1L500.8,454c3.6-1.4,6-4.9,6-8.8v-199C506.7,241,502.5,236.7,497.2,236.7z"/>
	<path d="M442.9,263.7c3.1,0,5.9-1.4,7.9-3.8c5.9-7.4,58.1-73.4,58.1-106.9c0-36.4-29.6-66-66-66c-36.4,0-65.9,29.6-65.9,66
		c0,33.5,52.1,99.5,58.1,106.9C437,262.3,439.8,263.7,442.9,263.7z M442.9,107.2c25.3,0,45.8,20.6,45.8,45.8
		c0,17.1-23.4,54.2-45.8,84.1c-22.5-29.9-45.8-67-45.8-84.1C397.1,127.8,417.6,107.2,442.9,107.2z"/>
	<path d="M453.3,153.1c0-5.6-4.5-10.1-10.2-10.1c-5.5,0-10,4.5-10,10.1c0,5.5,4.6,10.1,10.1,10.1
		C448.7,163.1,453.3,158.6,453.3,153.1z"/>
</g>
<g>
	<path fill="#fff" d="M-271.7,129.5H-330c-4.8-43.9-43.6-78.3-90.6-78.3h-129.6c-47,0-85.7,34.4-90.6,78.3h-58
		c-32.7,0-59.4,25.7-59.4,57.2v158c0,5.1,4.2,9.3,9.3,9.3c5.1,0,9.3-4.2,9.3-9.3v-158c0-21.3,18.3-38.6,40.8-38.6h57.5v177.3
		c-7.2,3.5-12.2,10.8-12.2,19.3c0,11.9,9.6,21.5,21.5,21.5c11.9,0,21.5-9.6,21.5-21.5c0-8.5-5-15.8-12.2-19.3V138.8
		c0-38,32.5-69,72.5-69h129.6c40,0,72.5,31,72.5,69v188.1c0,0,0,0,0,0c-10.7,5.1-15.2,17.9-10.1,28.6c5.1,10.7,17.9,15.2,28.6,10.1
		c10.7-5.1,15.2-17.9,10.1-28.6c-2.2-4.6-5.8-7.9-10-10v-179h57.7c22.5,0,40.8,17.3,40.8,38.6v158c0,5.1,4.2,9.3,9.3,9.3
		c5.1,0,9.3-4.2,9.3-9.3v-158C-212.4,155.1-239,129.5-271.7,129.5z"/>
	<path fill="#fff" d="M-540,120.1h-21.3c-2.8,0-5,2.2-5,5V151c0,2.8,2.2,5,5,5h21.3c2.8,0,5-2.2,5-5v-25.9
		C-535,122.3-537.3,120.1-540,120.1z"/>
	<path fill="#fff" d="M-474.7,120.1H-496c-2.8,0-5,2.2-5,5V151c0,2.8,2.2,5,5,5h21.3c2.8,0,5-2.2,5-5v-25.9
		C-469.7,122.3-471.9,120.1-474.7,120.1z"/>
	<path fill="#fff" d="M-409.3,120.1h-21.3c-2.8,0-5,2.2-5,5V151c0,2.8,2.2,5,5,5h21.3c2.8,0,5-2.2,5-5v-25.9
		C-404.3,122.3-406.6,120.1-409.3,120.1z"/>
	<path fill="#fff" d="M-540,184.6h-21.3c-2.8,0-5,2.2-5,5v25.9c0,2.8,2.2,5,5,5h21.3c2.8,0,5-2.2,5-5v-25.9
		C-535,186.9-537.3,184.6-540,184.6z"/>
	<path fill="#fff" d="M-474.7,184.6H-496c-2.8,0-5,2.2-5,5v25.9c0,2.8,2.2,5,5,5h21.3c2.8,0,5-2.2,5-5v-25.9
		C-469.7,186.9-471.9,184.6-474.7,184.6z"/>
	<path fill="#fff" d="M-409.3,184.6h-21.3c-2.8,0-5,2.2-5,5v25.9c0,2.8,2.2,5,5,5h21.3c2.8,0,5-2.2,5-5v-25.9
		C-404.3,186.9-406.6,184.6-409.3,184.6z"/>
	<path fill="#fff" d="M-540,249.2h-21.3c-2.8,0-5,2.2-5,5v25.9c0,2.8,2.2,5,5,5h21.3c2.8,0,5-2.2,5-5v-25.9
		C-535,251.4-537.3,249.2-540,249.2z"/>
	<path fill="#fff" d="M-668.4,180.3h-21.3c-2.8,0-5,2.2-5,5v25.9c0,2.8,2.2,5,5,5h21.3c2.8,0,5-2.2,5-5v-25.9
		C-663.4,182.5-665.7,180.3-668.4,180.3z"/>
	<path fill="#fff" d="M-668.4,237.1h-21.3c-2.8,0-5,2.2-5,5V268c0,2.8,2.2,5,5,5h21.3c2.8,0,5-2.2,5-5v-25.9
		C-663.4,239.3-665.7,237.1-668.4,237.1z"/>
	<path fill="#fff" d="M-273.8,237.1h-21.3c-2.8,0-5,2.2-5,5V268c0,2.8,2.2,5,5,5h21.3c2.8,0,5-2.2,5-5v-25.9
		C-268.8,239.3-271,237.1-273.8,237.1z"/>
	<path fill="#fff" d="M-273.8,180.3h-21.3c-2.8,0-5,2.2-5,5v25.9c0,2.8,2.2,5,5,5h21.3c2.8,0,5-2.2,5-5v-25.9
		C-268.8,182.5-271,180.3-273.8,180.3z"/>
	<path fill="#fff" d="M-474.7,249.2H-496c-2.8,0-5,2.2-5,5v25.9c0,2.8,2.2,5,5,5h21.3c2.8,0,5-2.2,5-5v-25.9
		C-469.7,251.4-471.9,249.2-474.7,249.2z"/>
	<path fill="#fff" d="M-409.3,249.2h-21.3c-2.8,0-5,2.2-5,5v25.9c0,2.8,2.2,5,5,5h21.3c2.8,0,5-2.2,5-5v-25.9
		C-404.3,251.4-406.6,249.2-409.3,249.2z"/>
	<path fill="#fff" d="M-294.1,43.2c11.9,0,21.5-9.6,21.5-21.5c0-11.9-9.6-21.5-21.5-21.5c-11.9,0-21.5,9.6-21.5,21.5
		C-315.6,33.6-306,43.2-294.1,43.2z"/>
	<circle fill="#fff" cx="-392" cy="-21.9" r="21.5"/>
	<path fill="#fff" d="M-489.9-21.9c11.9,0,21.5-9.6,21.5-21.5c0-11.9-9.6-21.5-21.5-21.5c-11.9,0-21.5,9.6-21.5,21.5
		C-511.4-31.5-501.8-21.9-489.9-21.9z"/>
	<circle fill="#fff" cx="-587.8" cy="-21.9" r="21.5"/>
	<path fill="#fff" d="M-685.7,44.6c11.9,0,21.5-9.6,21.5-21.5c0-11.9-9.6-21.5-21.5-21.5c-11.9,0-21.5,9.6-21.5,21.5
		C-707.2,35-697.5,44.6-685.7,44.6z"/>
</g>
</svg>
