<?xml version="1.0" encoding="utf-8"?>
<!-- Generator: Adobe Illustrator 25.0.0, SVG Export Plug-In . SVG Version: 6.00 Build 0)  -->
<svg fill="#fff" version="1.1" id="Capa_1" xmlns="http://www.w3.org/2000/svg" xmlns:xlink="http://www.w3.org/1999/xlink" x="0px" y="0px"
	 viewBox="0 0 595.3 595.3" enable-background="new 0 0 595.3 595.3" xml:space="preserve">
<g>
	<path d="M195.3,215.6h67.3c5.2,0,9.5-4.2,9.5-9.5s-4.2-9.5-9.5-9.5h-67.3c-5.2,0-9.5,4.2-9.5,9.5S190.1,215.6,195.3,215.6z"/>
	<path d="M195.3,337.2h67.3c5.2,0,9.5-4.2,9.5-9.5c0-5.2-4.2-9.5-9.5-9.5h-67.3c-5.2,0-9.5,4.2-9.5,9.5
		C185.9,332.9,190.1,337.2,195.3,337.2z"/>
	<path d="M195.3,425.7h67.3c5.2,0,9.5-4.2,9.5-9.5c0-5.2-4.2-9.5-9.5-9.5h-67.3c-5.2,0-9.5,4.2-9.5,9.5
		C185.9,421.5,190.1,425.7,195.3,425.7z"/>
	<path d="M341.5,355.6c2.9-0.6,5.4-1.2,7.2-3.3l39.7-46.5c3.4-4,2.9-9.9-1-13.3s-9.9-2.9-13.3,1l-32.6,38.2l-14.6-16.5
		c-3.5-3.9-9.5-4.2-13.4-0.8c-3.9,3.5-4.3,9.5-0.8,13.4l21.9,24.6C336.3,354.4,338.8,355.6,341.5,355.6z"/>
	<path d="M312.6,409l21.9,24.6c1.8,2,4.4,3.2,7.1,3.2c2.9-0.5,5.4-1.2,7.2-3.3l39.7-46.5c3.4-4,2.9-9.9-1-13.3
		c-4-3.4-9.9-2.9-13.3,1l-32.6,38.2l-14.6-16.5c-3.5-3.9-9.5-4.2-13.4-0.8C309.5,399.1,309.1,405.1,312.6,409z"/>
	<path d="M486.8,378.2c-2.2-4.6-6-7.8-10.3-9.9V235.9c0-0.4-0.2-0.7-0.2-1c0-0.4-0.1-0.7-0.2-1.1c-0.4-1.6-1-3.1-2.1-4.3L341.6,85
		c-1.2-1.3-2.7-2-4.3-2.5c-0.4-0.1-0.8-0.2-1.3-0.3c-0.5-0.1-0.9-0.3-1.4-0.3H201.9c-45.2,0-81.9,35.1-83,78.6
		c6.3-1.3,12.6-1.3,18.9,0.1c1-33.1,29.3-59.8,64.1-59.8h123.3v65c0,43.9,37,79.5,82.4,79.5h50.1v122.5
		c-10.9,5.2-15.5,18.3-10.3,29.2c2.2,4.6,6,7.8,10.3,9.9v0.3c0.5,0.2,0.9,0.3,1.4,0.5c0.5,0.2,1,0.4,1.6,0.6
		c2.3,0.8,4.8,1.2,7.2,1.1c0.3,0,0.5-0.1,0.7-0.1c2.7-0.2,5.3-0.8,7.9-2c0,0,0,0,0,0v0C487.5,402.1,492.1,389.1,486.8,378.2z
		 M407.6,226.5c-35,0-63.5-27.2-63.5-60.6v-50.1l101.5,110.7H407.6z"/>
	<path d="M457.4,430.8c-1.1,33-29.3,59.6-64.1,59.6H201.9c-35.4,0-64.3-27.6-64.3-61.6V223.1c10.9-5.2,15.5-18.3,10.3-29.2
		c-2.2-4.6-6-7.8-10.3-9.9v-0.3c-0.5-0.3-1.1-0.4-1.6-0.6c-0.4-0.2-0.8-0.3-1.2-0.5c-2.4-0.8-4.9-1.2-7.5-1.1
		c-0.2,0-0.4,0.1-0.6,0.1c-2.7,0.2-5.4,0.8-8,2c0,0,0,0,0,0v0c-10.9,5.2-15.5,18.3-10.3,29.2c2.2,4.6,6,7.8,10.3,9.9v206.1
		c0,44.4,37.3,80.5,83.2,80.5h191.5c45.1,0,81.8-35,83-78.4C470.1,432.3,463.8,432.3,457.4,430.8z"/>
</g>
</svg>
