<?xml version="1.0" encoding="utf-8"?>
<!-- Generator: Adobe Illustrator 25.0.0, SVG Export Plug-In . SVG Version: 6.00 Build 0)  -->
<svg version="1.1" id="Capa_1" xmlns="http://www.w3.org/2000/svg" xmlns:xlink="http://www.w3.org/1999/xlink" x="0px" y="0px"
	 viewBox="0 0 595.3 595.3" enable-background="new 0 0 595.3 595.3" xml:space="preserve">
<g>
	<path fill="#fff" d="M430.6,339.3c-65.1,0-118,52.9-118,118c0,65.1,52.9,118,118,118s118-52.9,118-118
		C548.6,392.2,495.6,339.3,430.6,339.3z M430.6,551c-51.7,0-93.7-42-93.7-93.7c0-51.6,42-93.7,93.7-93.7c51.7,0,93.7,42,93.7,93.7
		C524.2,508.9,482.2,551,430.6,551z"/>
	<path fill="#fff" d="M474.1,414.6l-59.6,59.6l-27.4-27.4c-4.8-4.8-12.5-4.8-17.2,0c-4.7,4.8-4.7,12.4,0,17.2l44.6,44.6
		l76.8-76.8c4.8-4.8,4.8-12.4,0-17.2C486.5,409.8,478.8,409.8,474.1,414.6z"/>
	<circle fill="#fff" cx="161.9" cy="293.5" r="13.7"/>
	<circle fill="#fff" cx="260.5" cy="293.5" r="13.7"/>
	<path fill="#fff" d="M346.6,293.5c0,7.6,6.2,13.7,13.7,13.7c7.6,0,13.7-6.2,13.7-13.7c0-7.6-6.2-13.7-13.7-13.7
		C352.7,279.7,346.6,285.9,346.6,293.5z"/>
	<circle fill="#fff" cx="161.9" cy="351.4" r="13.7"/>
	<circle fill="#fff" cx="260.5" cy="351.4" r="13.7"/>
	<path fill="#fff" d="M161.9,395.7c-7.6,0-13.7,6.2-13.7,13.7c0,7.6,6.2,13.7,13.7,13.7c7.6,0,13.7-6.2,13.7-13.7
		C175.7,401.8,169.5,395.7,161.9,395.7z"/>
	<path fill="#fff" d="M260.5,395.7c-7.6,0-13.7,6.2-13.7,13.7c0,7.6,6.2,13.7,13.7,13.7c7.6,0,13.7-6.2,13.7-13.7
		C274.3,401.8,268.1,395.7,260.5,395.7z"/>
	<path fill="#fff" d="M261.5,459.5c-11.5,0-21.4,7-25.8,16.9h-131c-18.6,0-33.7-15.1-33.7-33.7V225.5h379v38.1
		c-9.4,4.6-15.9,14.1-15.9,25.2c0,15.5,12.6,28.1,28.1,28.1c15.5,0,28.1-12.6,28.1-28.1c0-11.2-6.6-20.7-16-25.3V131.1
		c0-32-26-58-58-58h-43.8V38.4c0-6.7-5.4-12.2-12.2-12.2s-12.2,5.4-12.2,12.2v34.7h-74.9V38.4c0-6.7-5.4-12.2-12.2-12.2
		c-6.7,0-12.2,5.4-12.2,12.2v34.7h-74.9V38.4c0-6.7-5.4-12.2-12.2-12.2c-6.7,0-12.2,5.4-12.2,12.2v34.7h-45c-32,0-58,26-58,58v311.6
		c0,32.1,26,58,58,58h132.1c4.7,8.9,14,15,24.7,15c15.5,0,28.1-12.6,28.1-28.1C289.6,472.1,277.1,459.5,261.5,459.5z M71,131.1
		c0-18.6,15.1-33.7,33.7-33.7h45v31.9c0,6.7,5.4,12.2,12.2,12.2c6.7,0,12.2-5.4,12.2-12.2V97.5H249v31.9c0,6.7,5.4,12.2,12.2,12.2
		c6.7,0,12.2-5.4,12.2-12.2V97.5h74.9v31.9c0,6.7,5.4,12.2,12.2,12.2s12.2-5.4,12.2-12.2V97.5h43.8c18.6,0,33.7,15.1,33.7,33.7v70.1
		H71V131.1z"/>
</g>
</svg>
