<?xml version="1.0" ?>
<!-- Uploaded to: SVG Repo, www.svgrepo.com, Generator: SVG Repo Mixer Tools -->
<svg width="800px" height="800px" viewBox="0 0 64 64" xmlns="http://www.w3.org/2000/svg">
<defs>
<style>.cls-1{fill:none;stroke:#000000;stroke-linejoin:round;stroke-width:2px;}</style>
</defs>
<title/>
<g data-name="Layer 15" id="Layer_15">
<rect class="cls-1" height="4" width="60" x="2" y="58"/>
<polyline class="cls-1" points="22 44 22 58 16 58 16 44"/>
<path class="cls-1" d="M16,18V15a3,3,0,0,1,3-3h0a3,3,0,0,1,3,3v3"/>
<polygon class="cls-1" points="33 24 10 24 10 18 33 18 36 21 33 24"/>
<polygon class="cls-1" points="33 34 10 34 10 28 33 28 36 31 33 34"/>
<polygon class="cls-1" points="5 44 28 44 28 38 5 38 2 41 5 44"/>
<line class="cls-1" x1="16" x2="16" y1="24" y2="28"/>
<line class="cls-1" x1="22" x2="22" y1="24" y2="28"/>
<line class="cls-1" x1="16" x2="16" y1="34" y2="38"/>
<line class="cls-1" x1="22" x2="22" y1="34" y2="38"/>
<path class="cls-1" d="M47,32,39.22,19A8.52,8.52,0,0,1,38,14.64v-.1a8.54,8.54,0,0,1,2.5-6h0a8.54,8.54,0,0,1,6-2.5h.92a8.54,8.54,0,0,1,6,2.5h0a8.54,8.54,0,0,1,2.5,6v.1A8.52,8.52,0,0,1,54.78,19Z"/>
<polyline class="cls-1" points="32 18 32 2 62 2 62 36 35 36"/>
<circle class="cls-1" cx="47" cy="15" r="5"/>
<path class="cls-1" d="M47.46,58A3.89,3.89,0,0,0,48,56a4,4,0,0,0-4-4,4,4,0,0,0-7-2.62A4,4,0,0,0,30,52a4,4,0,0,0-4,4,3.89,3.89,0,0,0,.54,2"/>
<path class="cls-1" d="M59.46,58A3.89,3.89,0,0,0,60,56a4,4,0,0,0-4-4,4,4,0,0,0-7-2.62,4,4,0,0,0-6,0"/>
</g>
</svg>