<?xml version="1.0" encoding="utf-8"?>
<!-- Generator: Adobe Illustrator 25.0.0, SVG Export Plug-In . SVG Version: 6.00 Build 0)  -->
<svg fill='#fff' version="1.1" id="Capa_1" xmlns="http://www.w3.org/2000/svg" xmlns:xlink="http://www.w3.org/1999/xlink" x="0px" y="0px"
	 viewBox="0 0 595.3 595.3" enable-background="new 0 0 595.3 595.3" xml:space="preserve">
<g>
	<path fill="#fff" d="M511.1,275.6h-58.2c-4.8-43.9-43.6-78.3-90.6-78.3H232.7c-47,0-85.7,34.4-90.6,78.3h-58
		c-32.7,0-59.4,25.7-59.4,57.2v158c0,5.1,4.2,9.3,9.3,9.3c5.1,0,9.3-4.2,9.3-9.3v-158c0-21.3,18.3-38.6,40.8-38.6h57.5v177.3
		c-7.2,3.5-12.2,10.8-12.2,19.3c0,11.9,9.6,21.5,21.5,21.5c11.9,0,21.5-9.6,21.5-21.5c0-8.5-5-15.8-12.2-19.3V284.9
		c0-38,32.5-69,72.5-69h129.6c40,0,72.5,31,72.5,69v188.1c0,0,0,0,0,0c-10.7,5.1-15.2,17.9-10.1,28.6c5.1,10.7,17.9,15.2,28.6,10.1
		c10.7-5.1,15.2-17.9,10.1-28.6c-2.2-4.6-5.8-7.9-10-10v-179h57.7c22.5,0,40.8,17.3,40.8,38.6v158c0,5.1,4.2,9.3,9.3,9.3
		c5.1,0,9.3-4.2,9.3-9.3v-158C570.5,301.3,543.8,275.6,511.1,275.6z"/>
	<path fill="#fff" d="M242.8,266.2h-21.3c-2.8,0-5,2.2-5,5v25.9c0,2.8,2.2,5,5,5h21.3c2.8,0,5-2.2,5-5v-25.9
		C247.8,268.5,245.6,266.2,242.8,266.2z"/>
	<path fill="#fff" d="M308.2,266.2h-21.3c-2.8,0-5,2.2-5,5v25.9c0,2.8,2.2,5,5,5h21.3c2.8,0,5-2.2,5-5v-25.9
		C313.2,268.5,310.9,266.2,308.2,266.2z"/>
	<path fill="#fff" d="M373.5,266.2h-21.3c-2.8,0-5,2.2-5,5v25.9c0,2.8,2.2,5,5,5h21.3c2.8,0,5-2.2,5-5v-25.9
		C378.5,268.5,376.3,266.2,373.5,266.2z"/>
	<path fill="#fff" d="M242.8,330.8h-21.3c-2.8,0-5,2.2-5,5v25.9c0,2.8,2.2,5,5,5h21.3c2.8,0,5-2.2,5-5v-25.9
		C247.8,333,245.6,330.8,242.8,330.8z"/>
	<path fill="#fff" d="M308.2,330.8h-21.3c-2.8,0-5,2.2-5,5v25.9c0,2.8,2.2,5,5,5h21.3c2.8,0,5-2.2,5-5v-25.9
		C313.2,333,310.9,330.8,308.2,330.8z"/>
	<path fill="#fff" d="M373.5,330.8h-21.3c-2.8,0-5,2.2-5,5v25.9c0,2.8,2.2,5,5,5h21.3c2.8,0,5-2.2,5-5v-25.9
		C378.5,333,376.3,330.8,373.5,330.8z"/>
	<path fill="#fff" d="M242.8,395.4h-21.3c-2.8,0-5,2.2-5,5v25.9c0,2.8,2.2,5,5,5h21.3c2.8,0,5-2.2,5-5v-25.9
		C247.8,397.6,245.6,395.4,242.8,395.4z"/>
	<path fill="#fff" d="M114.4,326.5H93.1c-2.8,0-5,2.2-5,5v25.9c0,2.8,2.2,5,5,5h21.3c2.8,0,5-2.2,5-5v-25.9
		C119.4,328.7,117.2,326.5,114.4,326.5z"/>
	<path fill="#fff" d="M114.4,383.3H93.1c-2.8,0-5,2.2-5,5v25.9c0,2.8,2.2,5,5,5h21.3c2.8,0,5-2.2,5-5v-25.9
		C119.4,385.5,117.2,383.3,114.4,383.3z"/>
	<path fill="#fff" d="M509.1,383.3h-21.3c-2.8,0-5,2.2-5,5v25.9c0,2.8,2.2,5,5,5h21.3c2.8,0,5-2.2,5-5v-25.9
		C514.1,385.5,511.8,383.3,509.1,383.3z"/>
	<path fill="#fff" d="M509.1,326.5h-21.3c-2.8,0-5,2.2-5,5v25.9c0,2.8,2.2,5,5,5h21.3c2.8,0,5-2.2,5-5v-25.9
		C514.1,328.7,511.8,326.5,509.1,326.5z"/>
	<path fill="#fff" d="M308.2,395.4h-21.3c-2.8,0-5,2.2-5,5v25.9c0,2.8,2.2,5,5,5h21.3c2.8,0,5-2.2,5-5v-25.9
		C313.2,397.6,310.9,395.4,308.2,395.4z"/>
	<path fill="#fff" d="M373.5,395.4h-21.3c-2.8,0-5,2.2-5,5v25.9c0,2.8,2.2,5,5,5h21.3c2.8,0,5-2.2,5-5v-25.9
		C378.5,397.6,376.3,395.4,373.5,395.4z"/>
	<path fill="#fff" d="M488.7,189.4c11.9,0,21.5-9.6,21.5-21.5c0-11.9-9.6-21.5-21.5-21.5c-11.9,0-21.5,9.6-21.5,21.5
		C467.3,179.8,476.9,189.4,488.7,189.4z"/>
	<circle fill="#fff" cx="390.8" cy="124.3" r="21.5"/>
	<path fill="#fff" d="M292.9,124.3c11.9,0,21.5-9.6,21.5-21.5c0-11.9-9.6-21.5-21.5-21.5c-11.9,0-21.5,9.6-21.5,21.5
		C271.5,114.7,281.1,124.3,292.9,124.3z"/>
	<circle fill="#fff" cx="195.1" cy="124.3" r="21.5"/>
	<path fill="#fff" d="M97.2,190.7c11.9,0,21.5-9.6,21.5-21.5c0-11.9-9.6-21.5-21.5-21.5c-11.9,0-21.5,9.6-21.5,21.5
		C75.7,181.1,85.3,190.7,97.2,190.7z"/>
</g>
</svg>
