<svg xmlns="http://www.w3.org/2000/svg" shape-rendering="geometricPrecision" text-rendering="geometricPrecision" image-rendering="optimizeQuality" fill-rule="evenodd" clip-rule="evenodd" viewBox="0 0 512 356.768"><path fill="#CCC" fill-rule="nonzero" d="M29.014 0h453.971a28.496 28.496 0 0120.428 8.586A28.494 28.494 0 01512 29.015v298.739a28.493 28.493 0 01-8.587 20.428 28.496 28.496 0 01-20.428 8.586H29.014a28.911 28.911 0 01-20.428-8.458C3.251 342.974 0 335.691 0 327.754V29.015A28.517 28.517 0 018.586 8.586 28.505 28.505 0 0129.014 0zm453.971 1.948H29.014c-7.416 0-14.182 3.122-19.124 7.937-4.815 4.942-7.937 11.709-7.937 19.125v298.739c0 7.416 3.122 14.182 7.937 19.125 4.942 4.814 11.708 7.937 19.124 7.937l453.971.005c7.416 0 14.183-3.123 19.125-7.937 4.814-4.943 7.937-11.709 7.937-19.125V29.015c0-7.417-3.123-14.183-7.937-19.125-4.942-4.815-11.709-7.937-19.125-7.937v-.005z"/><path fill="#fff" fill-rule="nonzero" d="M482.985 1.948H29.015c-7.417 0-14.183 3.122-19.125 7.937-4.815 4.942-7.937 11.709-7.937 19.125v298.739c0 7.415 3.122 14.182 7.937 19.124 4.942 4.815 11.708 7.938 19.125 7.938l453.97.005c7.416 0 14.183-3.123 19.125-7.937 4.814-4.943 7.937-11.71 7.937-19.125V29.015c0-7.416-3.123-14.183-7.937-19.125-4.942-4.815-11.709-7.937-19.125-7.937v-.005z"/><path fill="#0038A8" fill-rule="nonzero" d="M1.953 271.211h508.094v37.129H1.953v-37.129zM202.928 48.428h307.119v37.131H202.928V48.428zm0 74.262h307.119v37.128H202.928V122.69zM1.953 196.949h508.094v37.129H1.953v-37.129z"/><path fill="#7B3F00" fill-rule="nonzero" d="M100.209 128.49l-.34-.507 1.014-.68 6.814 10.175-.476.344c-13.152 9.518-15.12 16.963-16.643 22.725-1.433 5.422-2.492 9.428-11.259 12.293l-2.495.816 1.88-1.835c5.376-5.246 4.991-8.263 4.422-12.728-.594-4.668-1.38-10.834 3.346-22.244l.232-.565 1.129.464-.232.565c-4.604 11.115-3.841 17.098-3.264 21.627.541 4.247.927 7.282-2.952 11.817 5.911-2.579 6.823-6.028 8.011-10.521 1.553-5.876 3.556-13.449 16.632-23.057l-5.819-8.689z"/><path fill="#FCD116" fill-rule="nonzero" d="M100.716 128.15l6.146 9.177c-25.254 18.275-9.836 29.082-27.732 34.932 11.131-10.862-1.471-12.538 7.907-35.178l13.679-8.931zm0 0z"/><path fill="#7B3F00" fill-rule="nonzero" d="M88.51 119.744l.118-.601 1.201.235c-.782 4.006-1.584 8.01-2.375 12.014l-.582-.093c-16.029-2.57-22.687 1.304-27.839 4.302-4.847 2.821-8.426 4.904-16.651.732l-2.341-1.188 2.624.032c7.535.092 9.476-2.363 12.332-5.976 2.964-3.751 6.865-8.686 18.246-13.401l.565-.232.464 1.13-.565.232c-11.086 4.592-14.874 9.385-17.753 13.027-2.711 3.43-4.658 5.891-10.643 6.361 6.007 2.359 9.091.564 13.109-1.774 5.251-3.056 12.022-6.994 28.061-4.542l2.029-10.258z"/><path fill="#FCD116" fill-rule="nonzero" d="M89.111 119.861l-2.143 10.835c-30.78-4.934-27.519 13.609-44.31 5.091 15.551.19 8.177-10.044 30.817-19.422l15.636 3.496zm0 0z"/><path fill="#7B3F00" fill-rule="nonzero" d="M88.784 120.086l-4.148-.748.014.055-.272.066c-12.578 3.083-19.549 8.252-24.974 12.274l-.39.29c-1.379 1.02-2.664 1.965-3.934 2.777-1.276.816-2.531 1.493-3.839 1.97a11.804 11.804 0 01-3.307.71c4.428.966 7.204-.646 10.654-2.651 5.243-3.046 12.013-6.978 28.161-4.445l2.035-10.298zm-4.472-1.37l5.128.924c-.751 3.792-1.502 7.584-2.249 11.377l-.265-.043c-16.144-2.587-22.862 1.316-28.06 4.336-4.076 2.369-7.239 4.207-13.155 2.105l-2.304-.818 2.428.279c.882.102 1.772.098 2.649-.007a11.22 11.22 0 002.565-.621l.002-.001c1.267-.462 2.488-1.121 3.731-1.915 1.248-.798 2.527-1.739 3.901-2.756l.39-.289c5.425-4.022 12.386-9.183 24.903-12.3l-.087-.347.423.076z"/><path fill="#7B3F00" fill-rule="nonzero" d="M89.112 119.863l-4.849-.874.049.201c-12.937 3.17-19.961 8.533-25.464 12.61-2.752 2.037-5.127 3.77-7.702 4.708a11.543 11.543 0 01-5.343.644c13.356 4.745 12.472-11.051 41.167-6.452l2.142-10.837z"/><path fill="#7B3F00" fill-rule="nonzero" d="M84.309 119.188c-12.629 3.091-19.682 8.321-25.087 12.328-5.854 4.342-9.841 7.299-16.768 4.848l.407-1.154c6.316 2.235 10.091-.564 15.634-4.675 5.49-4.071 12.655-9.384 25.527-12.535l.287 1.188z"/><path fill="#7B3F00" fill-rule="nonzero" d="M104.053 109.997l-7.713-7.713-34.712 50.139 42.425-42.426zm-7.365-9.097l17.846 17.846c-19.897 13.767-39.788 27.544-59.681 41.318 13.772-19.894 27.543-39.789 41.318-59.681l.517.517zm-34.194 52.388l50.139-34.711-7.713-7.714-42.426 42.425z"/><path fill="#FCD116" fill-rule="nonzero" d="M104.919 109.997l-8.664-8.664-38.988 56.317 56.317-38.988-8.664-8.665-47.653 47.653 47.652-47.653zm0 0z"/><path fill="#7B3F00" fill-rule="nonzero" d="M86.427 105.287l.507-.34.68 1.015-10.175 6.813-.345-.476c-9.517-13.152-16.963-15.12-22.724-16.643-5.423-1.433-9.428-2.491-12.294-11.259l-.816-2.496 1.836 1.881c5.247 5.377 8.292 4.994 12.789 4.429 4.69-.589 10.879-1.366 22.287 3.36l.565.232-.464 1.129-.565-.232c-11.106-4.6-17.118-3.845-21.675-3.273-4.272.537-7.33.919-11.873-2.964 2.579 5.911 6.028 6.823 10.521 8.011 5.876 1.553 13.449 3.556 23.057 16.632l8.689-5.819z"/><path fill="#FCD116" fill-rule="nonzero" d="M86.767 105.794l-9.177 6.146c-18.276-25.254-29.082-9.836-34.932-27.732 10.862 11.13 12.641-1.451 35.282 7.927l8.827 13.659zm0 0z"/><path fill="#7B3F00" fill-rule="nonzero" d="M86.376 105.723l-2.404-3.462-.029.047-.238-.144c-11.072-6.714-19.656-7.988-26.338-8.98l-.481-.072c-1.702-.254-3.283-.494-4.746-.817-1.48-.325-2.846-.735-4.108-1.322a11.813 11.813 0 01-2.841-1.838c2.447 3.815 5.55 4.637 9.408 5.659 5.862 1.554 13.43 3.561 23.057 16.771l8.72-5.842zm-2.192-4.133l2.972 4.279c-3.213 2.15-6.425 4.302-9.636 6.455l-.157-.217c-9.586-13.245-17.096-15.235-22.906-16.775-4.557-1.207-8.094-2.144-10.792-7.816l-1.05-2.205 1.519 1.914a11.32 11.32 0 004.131 3.243h.003c1.221.569 2.55.966 3.99 1.283 1.457.32 3.024.559 4.708.811l.482.071c6.68.992 15.25 2.265 26.305 8.912l.185-.308.246.353z"/><path fill="#7B3F00" fill-rule="nonzero" d="M86.766 105.796l-2.811-4.047-.107.177c-11.39-6.906-20.149-8.08-26.922-9.089-3.387-.506-6.291-.959-8.776-2.117a11.54 11.54 0 01-4.233-3.322c6.089 12.798 16.633 1.003 33.672 24.546l9.177-6.148z"/><path fill="#7B3F00" fill-rule="nonzero" d="M83.849 101.922c-11.113-6.742-19.8-8.032-26.457-9.019-7.211-1.07-12.122-1.799-15.287-8.432l1.106-.526c2.884 6.044 7.533 6.734 14.358 7.747 6.759 1.002 15.58 2.312 26.912 9.187l-.632 1.043z"/><path fill="#7B3F00" fill-rule="nonzero" d="M104.307 109.385V98.476L44.31 109.385h59.997zm1.225-11.64v25.237c-23.804-4.333-47.61-8.656-71.415-12.984l71.415-12.985v.732zM44.307 110.61l60 10.909V110.61h-60z"/><path fill="#FCD116" fill-rule="nonzero" d="M104.919 109.997V97.745l-67.391 12.253 67.391 12.253v-12.254H37.528h67.391zm0 0z"/><path fill="#7B3F00" fill-rule="nonzero" d="M104.919 109.997v12.254-12.254H37.528l67.391 12.254v-12.254zm0 0zM95.173 93.589l.601.117-.235 1.201c-4.006-.782-8.01-1.583-12.014-2.375l.093-.582c2.57-16.029-1.305-22.687-4.303-27.839-2.82-4.847-4.903-8.426-.731-16.65l1.188-2.342-.032 2.624c-.093 7.612 2.548 9.841 6.358 13.057 3.862 3.259 8.872 7.488 13.543 18.765l.233.564-1.13.464-.232-.564c-4.555-10.997-9.439-15.119-13.204-18.296-3.592-3.031-6.21-5.242-6.706-11.353-2.364 6.012-.569 9.098 1.771 13.119 3.056 5.251 6.994 12.021 4.542 28.06l10.258 2.03z"/><path fill="#FCD116" fill-rule="nonzero" d="M95.056 94.189l-10.835-2.143c4.934-30.779-13.609-27.519-5.091-44.31-.19 15.551 10.569 9.42 19.947 32.061l-4.021 14.392zm0 0z"/><path fill="#7B3F00" fill-rule="nonzero" d="M94.831 93.862l.747-4.147-.054.013-.067-.272c-3.082-12.578-8.251-19.548-12.274-24.974l-.289-.39c-1.02-1.379-1.965-2.663-2.778-3.934-.816-1.276-1.492-2.531-1.969-3.839a11.778 11.778 0 01-.71-3.307c-.966 4.428.646 7.203 2.651 10.654 3.046 5.243 6.978 12.013 4.445 28.161l10.298 2.035zm1.37-4.472l-.924 5.128c-3.792-.751-7.584-1.501-11.376-2.249l.042-.264c2.587-16.145-1.316-22.863-4.336-28.06-2.369-4.077-4.207-7.24-2.105-13.156l.819-2.305-.28 2.429a11.284 11.284 0 00.628 5.214l.001.002c.462 1.268 1.12 2.488 1.915 3.731.798 1.248 1.739 2.527 2.755 3.901l.29.39c4.022 5.425 9.183 12.386 12.3 24.903l.347-.087-.076.423z"/><path fill="#7B3F00" fill-rule="nonzero" d="M95.054 94.19l.874-4.849-.201.05c-3.17-12.938-8.533-19.962-12.61-25.465-2.037-2.752-3.77-5.126-4.709-7.702a11.568 11.568 0 01-.644-5.343c-4.744 13.356 11.052 12.472 6.453 41.167l10.837 2.142z"/><path fill="#7B3F00" fill-rule="nonzero" d="M95.729 89.387C92.638 76.758 87.408 69.705 83.4 64.301c-4.341-5.855-7.298-9.842-4.847-16.769l1.154.407c-2.235 6.316.564 10.091 4.674 15.634 4.072 5.49 9.385 12.655 12.535 25.527l-1.187.287z"/><path fill="#7B3F00" fill-rule="nonzero" d="M104.919 109.131l7.713-7.713-50.135-34.709 42.422 42.422zm9.098-7.364l-17.846 17.846L54.852 59.93l59.683 41.319-.518.518zM61.63 67.574l34.709 50.137 7.714-7.714L61.63 67.574z"/><path fill="#FCD116" fill-rule="nonzero" d="M104.919 109.997l8.664-8.664-56.317-38.989 38.989 56.318 8.664-8.665-47.652-47.653 47.652 47.653zm0 0z"/><path fill="#7B3F00" fill-rule="nonzero" d="M104.919 109.997l-8.664 8.665 8.664-8.665-47.652-47.653 38.988 56.318 8.664-8.665zm0 0zM109.63 91.505l.34.507-1.015.68-6.813-10.175.476-.344c13.152-9.518 15.12-16.964 16.643-22.725 1.433-5.423 2.491-9.428 11.259-12.294l2.496-.816-1.881 1.836c-5.38 5.251-5.005 8.299-4.45 12.803.578 4.693 1.34 10.884-3.383 22.286l-.232.564-1.129-.464.232-.565c4.598-11.1 3.857-17.114 3.296-21.672-.527-4.279-.903-7.342 2.985-11.887-5.912 2.578-6.824 6.027-8.011 10.52-1.553 5.876-3.556 13.45-16.632 23.057l5.819 8.689z"/><path fill="#FCD116" fill-rule="nonzero" d="M109.123 91.845l-6.146-9.177c25.254-18.275 9.836-29.083 27.732-34.932-11.131 10.862 1.407 12.654-7.971 35.294l-13.615 8.815zm0 0z"/><path fill="#7B3F00" fill-rule="nonzero" d="M109.194 91.454l3.462-2.404-.047-.029.144-.238c6.714-11.072 7.988-19.656 8.98-26.338l.071-.481c.254-1.7.495-3.279.817-4.745.325-1.479.734-2.846 1.323-4.109a11.767 11.767 0 011.837-2.841c-3.814 2.447-4.636 5.55-5.658 9.407-1.554 5.863-3.561 13.431-16.771 23.058l5.842 8.72zm4.132-2.192l-4.278 2.972-6.455-9.636.216-.157c13.246-9.586 15.236-17.096 16.776-22.906 1.207-4.558 2.144-8.094 7.816-10.792l2.206-1.05-1.915 1.519a11.32 11.32 0 00-3.243 4.131v.003c-.569 1.221-.966 2.55-1.283 3.992-.32 1.453-.559 3.02-.811 4.707l-.072.481c-.991 6.68-2.264 15.25-8.912 26.305l.309.186-.354.245z"/><path fill="#7B3F00" fill-rule="nonzero" d="M109.121 91.844l4.047-2.811-.178-.106c6.907-11.39 8.081-20.15 9.09-26.923.505-3.387.959-6.291 2.116-8.776a11.55 11.55 0 013.323-4.233c-12.798 6.089-1.003 16.633-24.546 33.672l6.148 9.177z"/><path fill="#7B3F00" fill-rule="nonzero" d="M112.994 88.928c6.743-11.114 8.032-19.801 9.02-26.458 1.07-7.211 1.799-12.122 8.432-15.287l.526 1.106c-6.044 2.884-6.734 7.533-7.747 14.358-1.003 6.759-2.312 15.58-9.187 26.913l-1.044-.632z"/><path fill="#7B3F00" fill-rule="nonzero" d="M105.532 109.385h10.909l-10.909-59.997v59.997zm11.64 1.225H91.935l12.984-71.415c4.329 23.805 8.652 47.611 12.985 71.415h-.732zm-12.865-61.224l-10.909 59.999h10.909V49.386z"/><path fill="#FCD116" fill-rule="nonzero" d="M104.919 109.997h12.253l-12.253-67.391-12.253 67.391h12.253V42.606v67.391zm0 0z"/><path fill="#7B3F00" fill-rule="nonzero" d="M104.919 109.997H92.666h12.253V42.606l-12.253 67.391h12.253zm0 0zM121.328 100.251l-.117.601-1.201-.235c.782-4.006 1.582-8.01 2.375-12.014l.582.093c16.028 2.57 22.687-1.305 27.838-4.303 4.847-2.82 8.427-4.903 16.651-.731l2.342 1.188-2.624-.032c-7.573-.092-9.612 2.402-12.602 6.06-3.068 3.753-7.091 8.674-18.423 13.368l-.565.232-.464-1.13.565-.232c11.038-4.572 14.953-9.361 17.939-13.014 2.83-3.462 4.867-5.952 10.904-6.425-6.007-2.359-9.091-.565-13.11 1.774-5.251 3.056-12.021 6.994-28.061 4.542l-2.029 10.258z"/><path fill="#FCD116" fill-rule="nonzero" d="M120.727 100.134l2.144-10.835c30.779 4.934 27.519-13.609 44.31-5.091-15.552-.19-8.623 10.095-31.264 19.473l-15.19-3.547zm0 0z"/><path fill="#7B3F00" fill-rule="nonzero" d="M121.054 99.909l4.148.748-.013-.055.272-.067c12.578-3.082 19.548-8.251 24.973-12.274l.391-.288c1.378-1.021 2.663-1.966 3.934-2.778 1.276-.816 2.531-1.493 3.839-1.97a11.791 11.791 0 013.307-.71c-4.428-.966-7.203.646-10.654 2.651-5.243 3.047-12.013 6.978-28.161 4.445l-2.036 10.298zm4.473 1.37l-5.128-.924 2.249-11.377.264.043c16.145 2.587 22.863-1.316 28.061-4.336 4.076-2.369 7.239-4.207 13.155-2.105l2.304.819-2.428-.28a11.338 11.338 0 00-2.649.007c-.876.106-1.738.313-2.565.621l-.003.001c-1.267.462-2.487 1.12-3.73 1.915-1.249.799-2.528 1.739-3.901 2.756l-.39.289c-5.426 4.023-12.386 9.183-24.903 12.3l.087.347-.423-.076z"/><path fill="#7B3F00" fill-rule="nonzero" d="M120.727 100.132l4.849.874-.05-.2c12.937-3.171 19.962-8.534 25.464-12.61 2.753-2.038 5.127-3.771 7.702-4.709a11.545 11.545 0 015.343-.645c-13.355-4.744-12.471 11.052-41.166 6.453l-2.142 10.837z"/><path fill="#7B3F00" fill-rule="nonzero" d="M125.53 100.807c12.629-3.091 19.682-8.321 25.086-12.329 5.854-4.341 9.842-7.298 16.768-4.847l-.407 1.154c-6.315-2.235-10.09.564-15.634 4.674-5.49 4.072-12.654 9.385-25.526 12.536l-.287-1.188z"/><path fill="#7B3F00" fill-rule="nonzero" d="M105.786 109.997l7.713 7.714 34.709-50.136-42.422 42.422zm7.364 9.098l-17.846-17.846c19.892-13.776 39.788-27.547 59.683-41.319-13.774 19.894-27.55 39.786-41.319 59.683l-.518-.518zm34.192-52.387l-50.136 34.71 7.713 7.713 42.423-42.423z"/><path fill="#FCD116" fill-rule="nonzero" d="M104.919 109.997l8.664 8.665 38.989-56.318-56.317 38.989 8.664 8.664 47.653-47.653-47.653 47.653zm0 0z"/><path fill="#7B3F00" fill-rule="nonzero" d="M104.919 109.997l-8.664-8.664 8.664 8.664 47.653-47.653-56.317 38.989 8.664 8.664zm0 0zM123.412 114.708l-.508.34-.679-1.015 10.174-6.814.345.477c9.518 13.152 16.964 15.12 22.724 16.642 5.423 1.434 9.428 2.492 12.294 11.26l.816 2.496-1.835-1.881c-5.261-5.391-8.375-5.026-12.955-4.49-4.75.557-11 1.289-22.382-3.425l-.564-.232.464-1.13.565.233c11.086 4.592 17.161 3.88 21.778 3.339 4.345-.509 7.464-.874 12.03 3.026-2.579-5.913-6.027-6.825-10.522-8.013-5.875-1.553-13.449-3.556-23.056-16.632l-8.689 5.819z"/><path fill="#FCD116" fill-rule="nonzero" d="M123.072 114.201l9.177-6.146c18.275 25.253 29.082 9.836 34.932 27.732-10.863-11.131-12.902 1.324-35.542-8.054l-8.567-13.532zm0 0z"/><path fill="#7B3F00" fill-rule="nonzero" d="M123.463 114.272l2.404 3.462.029-.047.238.144c11.072 6.714 19.656 7.988 26.338 8.98l.481.071c1.699.254 3.279.495 4.745.818 1.479.325 2.845.734 4.108 1.322a11.792 11.792 0 012.842 1.838c-2.447-3.815-5.55-4.637-9.407-5.659-5.863-1.553-13.431-3.561-23.058-16.771l-8.72 5.842zm2.192 4.133l-2.972-4.279c3.211-2.153 6.423-4.306 9.636-6.455l.157.217c9.586 13.245 17.096 15.235 22.906 16.775 4.558 1.208 8.094 2.145 10.792 7.816l1.05 2.206-1.519-1.914a11.288 11.288 0 00-4.132-3.244h-.002c-1.221-.569-2.551-.966-3.992-1.283-1.453-.32-3.02-.559-4.707-.811l-.481-.071c-6.681-.992-15.25-2.265-26.305-8.912l-.186.308-.245-.353z"/><path fill="#7B3F00" fill-rule="nonzero" d="M123.073 114.199l2.81 4.047.107-.177c11.39 6.906 20.149 8.081 26.923 9.089 3.387.505 6.291.959 8.776 2.116 1.653.758 3.104 1.9 4.234 3.323-6.09-12.798-16.634-1.003-33.673-24.546l-9.177 6.148z"/><path fill="#7B3F00" fill-rule="nonzero" d="M125.989 118.072c11.114 6.743 19.801 8.033 26.458 9.02 7.211 1.07 12.121 1.799 15.287 8.432l-1.106.526c-2.885-6.044-7.533-6.734-14.358-7.747-6.759-1.003-15.581-2.312-26.913-9.188l.632-1.043z"/><path fill="#7B3F00" fill-rule="nonzero" d="M105.532 110.61v10.909l59.998-10.909h-59.998zm-1.225 11.641V97.013l71.415 12.984c-23.805 4.329-47.611 8.652-71.415 12.985v-.731zm61.223-12.866l-59.998-10.909v10.909h59.998z"/><path fill="#FCD116" fill-rule="nonzero" d="M104.919 109.997v12.254l67.392-12.254-67.392-12.253v12.253h67.392-67.392zm0 0z"/><path fill="#7B3F00" fill-rule="nonzero" d="M104.919 109.997V97.745v12.252h67.392l-67.392-12.253v12.253zm0 0zM114.665 126.406l-.6-.117.235-1.201c4.006.782 8.01 1.582 12.014 2.375l-.093.582c-2.57 16.029 1.304 22.687 4.302 27.838 2.82 4.847 4.904 8.427.732 16.651l-1.188 2.342.032-2.624c.092-7.551-2.376-9.529-6.004-12.437-3.748-3.004-8.672-6.953-13.378-18.313l-.232-.565 1.129-.465.232.565c4.584 11.067 9.372 14.904 13.015 17.825 3.439 2.757 5.908 4.738 6.379 10.743 2.359-6.006.564-9.09-1.774-13.109-3.056-5.251-6.994-12.021-4.542-28.061l-10.259-2.029z"/><path fill="#FCD116" fill-rule="nonzero" d="M114.783 125.806l10.835 2.143c-4.934 30.779 13.609 27.519 5.091 44.31.19-15.552-10.05-8.349-19.428-30.989l3.502-15.464zm0 0z"/><path fill="#7B3F00" fill-rule="nonzero" d="M115.008 126.133l-.748 4.148.055-.014.066.272c3.083 12.578 8.252 19.549 12.274 24.974l.289.39c1.021 1.378 1.966 2.664 2.778 3.934.816 1.276 1.493 2.531 1.97 3.839a11.804 11.804 0 01.71 3.307c.966-4.428-.646-7.204-2.651-10.654-3.047-5.243-6.978-12.013-4.445-28.161l-10.298-2.035zm-1.371 4.472l.925-5.128 11.377 2.249-.043.265c-2.587 16.144 1.316 22.862 4.336 28.059 2.369 4.077 4.207 7.24 2.105 13.156l-.819 2.305.28-2.429a11.33 11.33 0 00-.628-5.214l-.001-.003c-.462-1.267-1.121-2.487-1.915-3.73-.799-1.248-1.739-2.528-2.756-3.901l-.289-.39c-4.023-5.425-9.183-12.386-12.3-24.903l-.348.087.076-.423z"/><path fill="#7B3F00" fill-rule="nonzero" d="M114.785 125.805l-.874 4.849.2-.05c3.171 12.937 8.534 19.962 12.61 25.464 2.038 2.753 3.77 5.128 4.709 7.703.634 1.704.853 3.537.645 5.343 4.744-13.356-11.052-12.472-6.453-41.167l-10.837-2.142z"/><path fill="#7B3F00" fill-rule="nonzero" d="M114.109 130.608c3.092 12.629 8.322 19.682 12.33 25.086 4.341 5.855 7.298 9.842 4.847 16.768l-1.154-.406c2.235-6.316-.564-10.091-4.674-15.634-4.072-5.49-9.385-12.655-12.536-25.527l1.187-.287z"/><path fill="#7B3F00" fill-rule="nonzero" d="M104.919 110.864l-7.713 7.713 50.137 34.71-42.424-42.423zm-9.097 7.364l17.846-17.846 41.319 59.683-59.683-41.319.518-.518zm52.386 34.192l-34.709-50.136-7.713 7.713 42.422 42.423z"/><path fill="#FCD116" fill-rule="nonzero" d="M104.919 109.997l-8.664 8.665 56.317 38.988-38.989-56.317-8.664 8.664 47.653 47.653-47.653-47.653zm0 0z"/><path fill="#7B3F00" fill-rule="nonzero" d="M104.919 109.997l8.664-8.664-8.664 8.664 47.653 47.653-38.989-56.317-8.664 8.664zm0 0zM100.645 128.54l-3.462 2.405.047.029-.145.238c-6.713 11.072-7.987 19.656-8.979 26.338l-.072.481c-.253 1.7-.495 3.28-.817 4.746-.326 1.479-.735 2.846-1.322 4.107a11.854 11.854 0 01-1.837 2.841c3.813-2.447 4.636-5.549 5.658-9.407 1.553-5.862 3.56-13.43 16.77-23.057l-5.841-8.721zm-4.133 2.193l4.279-2.972 6.455 9.636-.217.157c-13.246 9.586-15.236 17.096-16.775 22.906-1.208 4.557-2.146 8.094-7.816 10.792l-2.212 1.052 1.921-1.521a11.265 11.265 0 003.243-4.132c.569-1.224.966-2.552 1.283-3.993.32-1.455.559-3.021.811-4.708l.071-.481c.991-6.68 2.265-15.25 8.912-26.306l-.308-.185.353-.245z"/><path fill="#7B3F00" fill-rule="nonzero" d="M100.718 128.151l-4.047 2.811.177.106c-6.906 11.39-8.081 20.15-9.089 26.923-.506 3.387-.96 6.291-2.117 8.776A11.54 11.54 0 0182.319 171c12.798-6.089 1.003-16.633 24.546-33.672l-6.147-9.177z"/><path fill="#7B3F00" fill-rule="nonzero" d="M96.845 131.067c-6.743 11.114-8.033 19.801-9.021 26.458-1.07 7.211-1.799 12.122-8.431 15.287l-.526-1.106c6.044-2.884 6.734-7.533 7.747-14.358 1.003-6.759 2.312-15.581 9.187-26.912l1.044.631z"/><path fill="#7B3F00" fill-rule="nonzero" d="M104.307 110.61H93.398l10.909 60v-60zm-11.641-1.225h25.238c-4.334 23.804-8.657 47.609-12.985 71.414l-12.984-71.414h.731zm12.866 61.225l10.909-60h-10.909v60z"/><path fill="#FCD116" fill-rule="nonzero" d="M104.919 109.997H92.666l12.253 67.392 12.253-67.392h-12.253v67.392-67.392zm0 0z"/><path fill="#7B3F00" fill-rule="nonzero" d="M104.919 109.997h12.253-12.253v67.392l12.253-67.392h-12.253zm0 0z"/><path fill="#7B3F00" fill-rule="nonzero" d="M104.919 109.997l8.664 8.665-8.664-8.665-47.652 47.653 56.317-38.988-8.665-8.665zm0 0z"/><path fill="#7B3F00" fill-rule="nonzero" d="M121.703 93.213a23.664 23.664 0 016.952 16.784 23.665 23.665 0 01-6.952 16.784 23.664 23.664 0 01-16.784 6.952 23.665 23.665 0 01-16.784-6.952 23.665 23.665 0 01-6.952-16.784 23.664 23.664 0 016.952-16.784 23.664 23.664 0 0116.784-6.953 23.66 23.66 0 0116.784 6.953z"/><circle fill="#FCD116" fill-rule="nonzero" cx="104.919" cy="109.997" r="22.463"/><path fill="#7B3F00" fill-rule="nonzero" d="M121.461 101.012c-1.43 1.633-2.247-1.225-7.352-1.225s-5.922 3.063-6.739 2.45c-.817-.612 4.289-4.288 5.922-4.492 1.634-.205 6.331 1.429 8.169 3.267zm-5.922 1.838c1.429 1.225.204 3.88-1.226 3.88s-4.084-2.451-2.859-4.085l4.085.205zm0 0z"/><path fill="#7B3F00" fill-rule="nonzero" d="M108.799 104.688c.205-2.451 2.247-2.859 5.514-2.859 3.268 0 4.697 2.451 5.923 3.063-1.43 0-2.655-2.042-5.923-2.042-3.267 0-3.267 0-5.514 2.042v-.204zm.613.612c.817-1.225 1.838 1.226 4.084 1.226 2.247 0 3.472-.613 4.902-1.634 1.43-1.021-2.042 2.451-4.289 2.451-2.246 0-5.31-1.226-4.697-2.043zM93.483 102.646c-1.021.408-2.655 2.45 0 3.88-2.042-1.43-.408-3.472 0-3.88z"/><path fill="#7B3F00" fill-rule="nonzero" d="M116.356 102.646c.408.408 2.042 2.45 0 3.88 2.654-1.43 1.021-3.472 0-3.88zM101.652 111.427c-1.838.409-1.226 3.063-2.86 3.268-1.633.204-2.45 2.042-2.246 1.838 1.021-.817 3.268-1.43 4.902-1.43 1.633 0 2.042 1.021 3.471 1.021 1.43 0 1.838-1.021 3.472-1.021s3.881.613 4.901 1.43c.205.204-.612-1.634-2.245-1.838-1.634-.205-1.022-2.859-2.86-3.268 0 .817.612.613.816 1.838 0 1.021-1.837 1.021-2.246 0 .409 1.634-.817 1.634-1.837 1.634-1.022 0-2.247 0-1.838-1.634-.409 1.021-2.246 1.021-2.246 0 .204-1.225.816-1.021.816-1.838zM95.321 118.371c-1.634 1.225-2.042 1.838-2.246 3.267.489-.857.73-1.21 1.102-1.714-.099-.042-.183-.081-.285-.124.119.014.225.033.34.049.247-.334.466-.622 1.089-1.478z"/><path fill="#7B3F00" fill-rule="nonzero" d="M94.232 119.849l-.026.035c.255.059.526.087.81.088a22.108 22.108 0 00-.784-.123z"/><path fill="#7B3F00" fill-rule="nonzero" d="M95.016 119.972a22.94 22.94 0 013.19.814c1.143-.084 2.72-.374 6.713-.374 3.994 0 5.57.29 6.713.374a22.94 22.94 0 013.19-.814c-2.25.008-5.249-1.601-6.635-1.601-1.634 0-2.043.408-3.268.408-1.225 0-1.634-.408-3.268-.408-1.386 0-4.385 1.609-6.635 1.601zM114.822 119.972c.285-.001.556-.029.811-.088l-.026-.035c-.273.038-.535.079-.785.123z"/><path fill="#7B3F00" fill-rule="nonzero" d="M115.607 119.849c.114-.016.221-.034.339-.049-.101.043-.186.082-.284.124.372.504.612.857 1.102 1.714-.204-1.43-.612-2.043-2.246-3.268.623.856.842 1.145 1.089 1.478v.001z"/><path fill="#7B3F00" fill-rule="nonzero" d="M115.662 119.924a.134.134 0 01-.011-.014c-2.131.822-2.881.961-4.018.877-1.936.626-3.533 1.26-6.714 1.26-3.18 0-4.777-.634-6.713-1.26-1.137.084-1.887-.055-4.018-.877-.003.004-.008.012-.011.014 6.415 2.762 5.714 3.756 10.742 3.756 5.028 0 4.327-.994 10.743-3.756zM94.187 119.91l.019-.026c-.106-.025-.214-.047-.314-.084.117.046.186.068.295.11zM115.651 119.91c.109-.042.179-.064.295-.11-.1.037-.207.059-.313.084l.018.026zM88.378 101.012c1.429 1.633 2.246-1.225 7.351-1.225 5.106 0 5.923 3.063 6.74 2.45.816-.612-4.289-4.288-5.923-4.492-1.633-.205-6.331 1.429-8.169 3.267h.001zm5.922 1.838c-1.43 1.225-.204 3.88 1.225 3.88 1.43 0 4.085-2.451 2.859-4.085l-4.084.205zm0 0z"/><path fill="#7B3F00" fill-rule="nonzero" d="M101.039 104.688c-.204-2.451-2.246-2.859-5.514-2.859-3.267 0-4.697 2.451-5.922 3.063 1.429 0 2.655-2.042 5.922-2.042 3.268 0 3.268 0 5.514 2.042v-.204zm-.613.612c-.817-1.225-1.837 1.226-4.084 1.226-2.246 0-3.472-.613-4.901-1.634-1.429-1.021 2.042 2.451 4.289 2.451 2.246 0 5.309-1.226 4.696-2.042v-.001zm0 0zM104.919 125.518c-1.021 0-3.676.613 0 .613s1.021-.613 0-.613z"/></svg>