<?xml version="1.0" encoding="iso-8859-1"?>
<!-- Uploaded to: SVG Repo, www.svgrepo.com, Generator: SVG Repo Mixer Tools -->
<svg version="1.1" id="Layer_1" xmlns="http://www.w3.org/2000/svg" xmlns:xlink="http://www.w3.org/1999/xlink" 
	 viewBox="0 0 512.001 512.001" xml:space="preserve">
<path style="fill:#3DB4EA;" d="M400,0.001H112c-61.856,0-112,50.145-112,112v288c0,61.855,50.144,112,112,112h288
	c61.856,0,112-50.145,112-112v-288C512,50.146,461.856,0.001,400,0.001z"/>
<g>
	<rect y="341.331" style="fill:#FFFFFF;" width="512" height="56.883"/>
	<path style="fill:#FFFFFF;" d="M112,512h288c41.818,0,78.278-22.922,97.515-56.883H14.485C33.722,489.079,70.182,512,112,512z"/>
	<path style="fill:#FFFFFF;" d="M284.633,56.884h212.881C478.278,22.923,441.818,0.001,400,0.001H112c-61.856,0-112,50.144-112,112
		v172.45h512v-56.9H284.633v-56.883H512v-56.883H284.633V56.884z"/>
</g>
<circle style="fill:#F2A643;" cx="141.29" cy="142.221" r="72.53"/>
<path d="M497.341,59.688c-0.199-0.465-0.447-0.902-0.734-1.311C476.551,23.521,438.921,0.001,395.901,0.001H116.099
	C52.082,0.001,0,52.083,0,116.1v279.803c0,20.462,5.328,39.7,14.659,56.412c0.199,0.465,0.447,0.902,0.734,1.311
	C35.449,488.481,73.079,512,116.099,512h279.803c43.02,0,80.65-23.52,100.706-58.376c0.287-0.409,0.535-0.846,0.734-1.311
	c9.331-16.712,14.659-35.95,14.659-56.412V116.1C512,95.638,506.672,76.399,497.341,59.688z M137.084,386.883
	c-4.024,0-7.287,3.262-7.287,7.287s3.262,7.286,7.287,7.286h360.189c-0.791,14.595-4.676,28.38-11.013,40.708H25.74
	c-6.337-12.327-10.222-26.113-11.013-40.708h92.045c4.024,0,7.286-3.262,7.286-7.286c0-4.025-3.262-7.287-7.286-7.287H14.573
	v-40.692h482.854v40.692L137.084,386.883L137.084,386.883z M14.573,290.928h482.854v40.691H14.573V290.928z M424.659,110.546
	H290.927V69.838H486.26c6.337,12.327,10.222,26.113,11.013,40.708H454.97c-4.024,0-7.286,3.262-7.286,7.286
	c0,4.025,3.262,7.286,7.286,7.286h42.456v40.692h-206.5v-40.692h133.732c4.024,0,7.286-3.262,7.286-7.286
	C431.945,113.808,428.683,110.546,424.659,110.546z M497.427,180.383v40.691h-206.5v-40.691L497.427,180.383L497.427,180.383z
	 M116.099,14.574h279.803c33.181,0,62.693,16.001,81.231,40.691H283.64c-4.024,0-7.287,3.262-7.287,7.286v165.81
	c0,4.025,3.262,7.286,7.287,7.286h213.786v40.708H14.573V116.1C14.573,60.119,60.117,14.574,116.099,14.574z M395.901,497.428
	H116.099c-33.181,0-62.693-16.001-81.231-40.691h442.264C458.594,481.427,429.082,497.428,395.901,497.428z"/>
</svg>